<svg xmlns="http://www.w3.org/2000/svg" width="1920" height="1080"><path d="M468,1547L16,1549L694,1563Z" fill="#64778b" stroke="#64778b" stroke-width="1.51"/><path d="M148,-472L621,-432L1000,-454Z" fill="#c2e6c7" stroke="#c2e6c7" stroke-width="1.51"/><path d="M1283,1496L694,1563L1639,1544Z" fill="#245c90" stroke="#245c90" stroke-width="1.51"/><path d="M1000,-454L1454,-417L2050,-413Z" fill="#9fb7c3" stroke="#9fb7c3" stroke-width="1.51"/><path d="M1963,1441L1639,1544L2178,1405Z" fill="#1e3486" stroke="#1e3486" stroke-width="1.51"/><path d="M2173,196L2071,239L2296,453Z" fill="#55779c" stroke="#55779c" stroke-width="1.51"/><path d="M2148,628L2111,678L2300,896Z" fill="#2a609d" stroke="#2a609d" stroke-width="1.51"/><path d="M2296,453L2148,628L2300,896Z" fill="#2d6398" stroke="#2d6398" stroke-width="1.51"/><path d="M2026,-114L2173,196L2315,-159Z" fill="#7f859a" stroke="#7f859a" stroke-width="1.51"/><path d="M2173,196L2296,453L2315,-159Z" fill="#647a93" stroke="#647a93" stroke-width="1.51"/><path d="M2300,896L2081,1037L2324,1116Z" fill="#1e468e" stroke="#1e468e" stroke-width="1.51"/><path d="M2081,1037L2178,1405L2324,1116Z" fill="#1f398b" stroke="#1f398b" stroke-width="1.51"/><path d="M2315,-159L2296,453L2324,1116Z" fill="#3b6b93" stroke="#3b6b93" stroke-width="1.51"/><path d="M2296,453L2300,896L2324,1116Z" fill="#1f5690" stroke="#1f5690" stroke-width="1.51"/><path d="M2210,-270L2026,-114L2315,-159Z" fill="#8a8899" stroke="#8a8899" stroke-width="1.51"/><path d="M2071,239L1945,404L2296,453Z" fill="#5177a4" stroke="#5177a4" stroke-width="1.51"/><path d="M2111,678L2081,1037L2300,896Z" fill="#24569b" stroke="#24569b" stroke-width="1.51"/><path d="M1945,404L2148,628L2296,453Z" fill="#4072a3" stroke="#4072a3" stroke-width="1.51"/><path d="M1454,-417L1813,-323L2050,-413Z" fill="#9ca3b7" stroke="#9ca3b7" stroke-width="1.51"/><path d="M2026,-114L2071,239L2173,196Z" fill="#7583a3" stroke="#7583a3" stroke-width="1.51"/><path d="M2081,1037L1967,1080L2178,1405Z" fill="#253f96" stroke="#253f96" stroke-width="1.51"/><path d="M1967,1080L1963,1441L2178,1405Z" fill="#253594" stroke="#253594" stroke-width="1.51"/><path d="M2050,-413L2026,-114L2210,-270Z" fill="#948ea2" stroke="#948ea2" stroke-width="1.51"/><path d="M1755,741L2081,1037L2111,678Z" fill="#2b63ab" stroke="#2b63ab" stroke-width="1.51"/><path d="M1790,1258L1963,1441L1967,1080Z" fill="#26419a" stroke="#26419a" stroke-width="1.51"/><path d="M2026,-114L1793,41L2071,239Z" fill="#7f8ca9" stroke="#7f8ca9" stroke-width="1.51"/><path d="M1755,741L1967,1080L2081,1037Z" fill="#2859a6" stroke="#2859a6" stroke-width="1.51"/><path d="M1945,404L2111,678L2148,628Z" fill="#3b71a9" stroke="#3b71a9" stroke-width="1.51"/><path d="M1813,-323L2026,-114L2050,-413Z" fill="#9895ab" stroke="#9895ab" stroke-width="1.51"/><path d="M1945,404L1755,741L2111,678Z" fill="#3974ae" stroke="#3974ae" stroke-width="1.51"/><path d="M1793,41L1945,404L2071,239Z" fill="#6686ab" stroke="#6686ab" stroke-width="1.51"/><path d="M1755,741L1642,961L1967,1080Z" fill="#2664ab" stroke="#2664ab" stroke-width="1.51"/><path d="M1813,-323L1754,0L2026,-114Z" fill="#9099aa" stroke="#9099aa" stroke-width="1.51"/><path d="M1754,0L1793,41L2026,-114Z" fill="#8796ac" stroke="#8796ac" stroke-width="1.51"/><path d="M1793,41L1677,401L1945,404Z" fill="#5c8caf" stroke="#5c8caf" stroke-width="1.51"/><path d="M1677,401L1755,741L1945,404Z" fill="#3e83b2" stroke="#3e83b2" stroke-width="1.51"/><path d="M1642,961L1790,1258L1967,1080Z" fill="#2554a3" stroke="#2554a3" stroke-width="1.51"/><path d="M1790,1258L1639,1544L1963,1441Z" fill="#213d8f" stroke="#213d8f" stroke-width="1.51"/><path d="M1677,401L1463,561L1755,741Z" fill="#358ab8" stroke="#358ab8" stroke-width="1.51"/><path d="M1548,1490L1639,1544L1790,1258Z" fill="#204591" stroke="#204591" stroke-width="1.51"/><path d="M1562,303L1677,401L1793,41Z" fill="#6095b2" stroke="#6095b2" stroke-width="1.51"/><path d="M1754,0L1535,77L1793,41Z" fill="#819eb0" stroke="#819eb0" stroke-width="1.51"/><path d="M1535,77L1562,303L1793,41Z" fill="#739eb2" stroke="#739eb2" stroke-width="1.51"/><path d="M1448,-178L1754,0L1813,-323Z" fill="#93a5b0" stroke="#93a5b0" stroke-width="1.51"/><path d="M1454,-417L1448,-178L1813,-323Z" fill="#9cb0b7" stroke="#9cb0b7" stroke-width="1.51"/><path d="M1642,961L1392,1165L1790,1258Z" fill="#255da8" stroke="#255da8" stroke-width="1.51"/><path d="M1392,1165L1548,1490L1790,1258Z" fill="#2752a2" stroke="#2752a2" stroke-width="1.51"/><path d="M1548,1490L1283,1496L1639,1544Z" fill="#1e4c8d" stroke="#1e4c8d" stroke-width="1.51"/><path d="M1448,-178L1535,77L1754,0Z" fill="#89a9b3" stroke="#89a9b3" stroke-width="1.51"/><path d="M1463,561L1642,961L1755,741Z" fill="#277eb7" stroke="#277eb7" stroke-width="1.51"/><path d="M1463,561L1403,962L1642,961Z" fill="#2280b9" stroke="#2280b9" stroke-width="1.51"/><path d="M1403,962L1392,1165L1642,961Z" fill="#246fb0" stroke="#246fb0" stroke-width="1.51"/><path d="M1562,303L1463,561L1677,401Z" fill="#4995b8" stroke="#4995b8" stroke-width="1.51"/><path d="M1266,835L1403,962L1463,561Z" fill="#208dbe" stroke="#208dbe" stroke-width="1.51"/><path d="M1326,564L1266,835L1463,561Z" fill="#2c99c0" stroke="#2c99c0" stroke-width="1.51"/><path d="M1392,1165L1283,1496L1548,1490Z" fill="#27589f" stroke="#27589f" stroke-width="1.51"/><path d="M1326,564L1463,561L1562,303Z" fill="#409cbd" stroke="#409cbd" stroke-width="1.51"/><path d="M1217,263L1326,564L1562,303Z" fill="#4fa6be" stroke="#4fa6be" stroke-width="1.51"/><path d="M1535,77L1217,263L1562,303Z" fill="#67a9b9" stroke="#67a9b9" stroke-width="1.51"/><path d="M1317,-281L1448,-178L1454,-417Z" fill="#9dbcbb" stroke="#9dbcbb" stroke-width="1.51"/><path d="M1448,-178L1152,-178L1535,77Z" fill="#90bab9" stroke="#90bab9" stroke-width="1.51"/><path d="M1152,-178L1217,263L1535,77Z" fill="#82bbbc" stroke="#82bbbc" stroke-width="1.51"/><path d="M1201,1251L1283,1496L1392,1165Z" fill="#2d65ab" stroke="#2d65ab" stroke-width="1.51"/><path d="M1000,-454L1317,-281L1454,-417Z" fill="#a2c8c5" stroke="#a2c8c5" stroke-width="1.51"/><path d="M1317,-281L1152,-178L1448,-178Z" fill="#9bc2ba" stroke="#9bc2ba" stroke-width="1.51"/><path d="M1152,-178L1058,211L1217,263Z" fill="#7fc1bd" stroke="#7fc1bd" stroke-width="1.51"/><path d="M1217,263L1144,310L1326,564Z" fill="#50afc0" stroke="#50afc0" stroke-width="1.51"/><path d="M1266,835L1037,1169L1403,962Z" fill="#2882b8" stroke="#2882b8" stroke-width="1.51"/><path d="M1037,1169L1201,1251L1403,962Z" fill="#2d77b2" stroke="#2d77b2" stroke-width="1.51"/><path d="M1201,1251L1392,1165L1403,962Z" fill="#2671b1" stroke="#2671b1" stroke-width="1.51"/><path d="M1071,1362L694,1563L1283,1496Z" fill="#326899" stroke="#326899" stroke-width="1.51"/><path d="M1201,1251L1071,1362L1283,1496Z" fill="#3166a5" stroke="#3166a5" stroke-width="1.51"/><path d="M1000,-454L1152,-178L1317,-281Z" fill="#a3ccc0" stroke="#a3ccc0" stroke-width="1.51"/><path d="M1144,310L907,417L1326,564Z" fill="#4db2c1" stroke="#4db2c1" stroke-width="1.51"/><path d="M851,666L1266,835L1326,564Z" fill="#31a1c2" stroke="#31a1c2" stroke-width="1.51"/><path d="M907,417L851,666L1326,564Z" fill="#3eb2c4" stroke="#3eb2c4" stroke-width="1.51"/><path d="M881,1038L1037,1169L1266,835Z" fill="#3288b8" stroke="#3288b8" stroke-width="1.51"/><path d="M851,666L881,1038L1266,835Z" fill="#329dc0" stroke="#329dc0" stroke-width="1.51"/><path d="M899,-159L1058,211L1152,-178Z" fill="#93cdbc" stroke="#93cdbc" stroke-width="1.51"/><path d="M1058,211L1144,310L1217,263Z" fill="#63b9bf" stroke="#63b9bf" stroke-width="1.51"/><path d="M1037,1169L1071,1362L1201,1251Z" fill="#3772ae" stroke="#3772ae" stroke-width="1.51"/><path d="M899,-159L762,-43L1058,211Z" fill="#95d1bc" stroke="#95d1bc" stroke-width="1.51"/><path d="M1000,-454L899,-159L1152,-178Z" fill="#a5d4bd" stroke="#a5d4bd" stroke-width="1.51"/><path d="M1058,211L907,417L1144,310Z" fill="#5fbcc0" stroke="#5fbcc0" stroke-width="1.51"/><path d="M1037,1169L717,1089L1071,1362Z" fill="#3e7eb1" stroke="#3e7eb1" stroke-width="1.51"/><path d="M717,1089L694,1563L1071,1362Z" fill="#4a76a9" stroke="#4a76a9" stroke-width="1.51"/><path d="M773,388L907,417L1058,211Z" fill="#62c0c0" stroke="#62c0c0" stroke-width="1.51"/><path d="M762,-43L773,388L1058,211Z" fill="#7cc9be" stroke="#7cc9be" stroke-width="1.51"/><path d="M881,1038L717,1089L1037,1169Z" fill="#4288b4" stroke="#4288b4" stroke-width="1.51"/><path d="M851,666L751,1038L881,1038Z" fill="#469bbc" stroke="#469bbc" stroke-width="1.51"/><path d="M621,-432L899,-159L1000,-454Z" fill="#b0dcc2" stroke="#b0dcc2" stroke-width="1.51"/><path d="M762,-43L595,48L773,388Z" fill="#8fd1bb" stroke="#8fd1bb" stroke-width="1.51"/><path d="M618,771L751,1038L851,666Z" fill="#4ea7bf" stroke="#4ea7bf" stroke-width="1.51"/><path d="M751,1038L717,1089L881,1038Z" fill="#4b8fb5" stroke="#4b8fb5" stroke-width="1.51"/><path d="M621,-432L762,-43L899,-159Z" fill="#afdcb9" stroke="#afdcb9" stroke-width="1.51"/><path d="M773,388L851,666L907,417Z" fill="#55bbc2" stroke="#55bbc2" stroke-width="1.51"/><path d="M595,48L522,256L773,388Z" fill="#85cebb" stroke="#85cebb" stroke-width="1.51"/><path d="M773,388L541,516L851,666Z" fill="#5cbec1" stroke="#5cbec1" stroke-width="1.51"/><path d="M458,1108L468,1547L694,1563Z" fill="#5f7b9e" stroke="#5f7b9e" stroke-width="1.51"/><path d="M458,1108L694,1563L717,1089Z" fill="#5b83ac" stroke="#5b83ac" stroke-width="1.51"/><path d="M621,-432L513,-62L762,-43Z" fill="#b3dfb7" stroke="#b3dfb7" stroke-width="1.51"/><path d="M541,516L618,771L851,666Z" fill="#5bb7c0" stroke="#5bb7c0" stroke-width="1.51"/><path d="M618,771L499,874L751,1038Z" fill="#59a4ba" stroke="#59a4ba" stroke-width="1.51"/><path d="M522,256L541,516L773,388Z" fill="#74c7bd" stroke="#74c7bd" stroke-width="1.51"/><path d="M499,874L717,1089L751,1038Z" fill="#5799b6" stroke="#5799b6" stroke-width="1.51"/><path d="M513,-62L595,48L762,-43Z" fill="#a7dbb8" stroke="#a7dbb8" stroke-width="1.51"/><path d="M541,516L490,580L618,771Z" fill="#69bdbf" stroke="#69bdbf" stroke-width="1.51"/><path d="M357,-328L513,-62L621,-432Z" fill="#c4e7b8" stroke="#c4e7b8" stroke-width="1.51"/><path d="M499,874L458,1108L717,1089Z" fill="#6199b3" stroke="#6199b3" stroke-width="1.51"/><path d="M458,1108L213,1268L468,1547Z" fill="#7686a8" stroke="#7686a8" stroke-width="1.51"/><path d="M490,580L499,874L618,771Z" fill="#66b5be" stroke="#66b5be" stroke-width="1.51"/><path d="M148,-472L357,-328L621,-432Z" fill="#d5eec1" stroke="#d5eec1" stroke-width="1.51"/><path d="M213,1268L216,1431L468,1547Z" fill="#77829b" stroke="#77829b" stroke-width="1.51"/><path d="M513,-62L522,256L595,48Z" fill="#a3dab8" stroke="#a3dab8" stroke-width="1.51"/><path d="M490,580L266,627L499,874Z" fill="#77bdbe" stroke="#77bdbe" stroke-width="1.51"/><path d="M513,-62L141,114L522,256Z" fill="#afdeb7" stroke="#afdeb7" stroke-width="1.51"/><path d="M522,256L204,404L541,516Z" fill="#89cfbc" stroke="#89cfbc" stroke-width="1.51"/><path d="M204,404L490,580L541,516Z" fill="#80cabd" stroke="#80cabd" stroke-width="1.51"/><path d="M143,950L458,1108L499,874Z" fill="#78a4b5" stroke="#78a4b5" stroke-width="1.51"/><path d="M357,-328L164,-209L513,-62Z" fill="#ceebb4" stroke="#ceebb4" stroke-width="1.51"/><path d="M141,114L204,404L522,256Z" fill="#a4dab8" stroke="#a4dab8" stroke-width="1.51"/><path d="M216,1431L16,1549L468,1547Z" fill="#767f90" stroke="#767f90" stroke-width="1.51"/><path d="M204,404L266,627L490,580Z" fill="#88ccbd" stroke="#88ccbd" stroke-width="1.51"/><path d="M164,-209L141,114L513,-62Z" fill="#caeab4" stroke="#caeab4" stroke-width="1.51"/><path d="M266,627L143,950L499,874Z" fill="#80b8bb" stroke="#80b8bb" stroke-width="1.51"/><path d="M143,950L213,1268L458,1108Z" fill="#819baf" stroke="#819baf" stroke-width="1.51"/><path d="M148,-472L164,-209L357,-328Z" fill="#dff3ba" stroke="#dff3ba" stroke-width="1.51"/><path d="M141,114L21,174L204,404Z" fill="#b3e0b7" stroke="#b3e0b7" stroke-width="1.51"/><path d="M143,950L8,1083L213,1268Z" fill="#8b9fae" stroke="#8b9fae" stroke-width="1.51"/><path d="M204,404L-96,523L266,627Z" fill="#99d3bc" stroke="#99d3bc" stroke-width="1.51"/><path d="M-96,523L-22,768L266,627Z" fill="#99ccbc" stroke="#99ccbc" stroke-width="1.51"/><path d="M-22,768L143,950L266,627Z" fill="#8fc0bb" stroke="#8fc0bb" stroke-width="1.51"/><path d="M-187,-197L141,114L164,-209Z" fill="#dbf1b3" stroke="#dbf1b3" stroke-width="1.51"/><path d="M8,1083L16,1549L213,1268Z" fill="#8d8ea8" stroke="#8d8ea8" stroke-width="1.51"/><path d="M213,1268L16,1549L216,1431Z" fill="#81869a" stroke="#81869a" stroke-width="1.51"/><path d="M-187,-197L21,174L141,114Z" fill="#d3eeb3" stroke="#d3eeb3" stroke-width="1.51"/><path d="M148,-472L-145,-448L164,-209Z" fill="#e9f7bc" stroke="#e9f7bc" stroke-width="1.51"/><path d="M21,174L-96,523L204,404Z" fill="#aadbb8" stroke="#aadbb8" stroke-width="1.51"/><path d="M13,975L8,1083L143,950Z" fill="#8faab2" stroke="#8faab2" stroke-width="1.51"/><path d="M-22,768L13,975L143,950Z" fill="#92b5b6" stroke="#92b5b6" stroke-width="1.51"/><path d="M-145,-448L-187,-197L164,-209Z" fill="#ecf8b5" stroke="#ecf8b5" stroke-width="1.51"/><path d="M8,1083L-385,1260L16,1549Z" fill="#9792a7" stroke="#9792a7" stroke-width="1.51"/><path d="M-272,-158L-241,154L-187,-197Z" fill="#e4f4b9" stroke="#e4f4b9" stroke-width="1.51"/><path d="M-232,940L8,1083L13,975Z" fill="#97adb2" stroke="#97adb2" stroke-width="1.51"/><path d="M-22,768L-232,940L13,975Z" fill="#9ab8b6" stroke="#9ab8b6" stroke-width="1.51"/><path d="M-385,1260L-408,1418L16,1549Z" fill="#938ca2" stroke="#938ca2" stroke-width="1.51"/><path d="M-241,154L-96,523L21,174Z" fill="#b9e2b6" stroke="#b9e2b6" stroke-width="1.51"/><path d="M-187,-197L-241,154L21,174Z" fill="#d8efb5" stroke="#d8efb5" stroke-width="1.51"/><path d="M-232,940L-385,1260L8,1083Z" fill="#9aa5b3" stroke="#9aa5b3" stroke-width="1.51"/><path d="M-241,154L-329,486L-96,523Z" fill="#b4debf" stroke="#b4debf" stroke-width="1.51"/><path d="M-96,523L-429,727L-22,768Z" fill="#a3cdbf" stroke="#a3cdbf" stroke-width="1.51"/><path d="M-429,727L-232,940L-22,768Z" fill="#9fc3c0" stroke="#9fc3c0" stroke-width="1.51"/><path d="M-373,-313L-187,-197L-145,-448Z" fill="#f3fabe" stroke="#f3fabe" stroke-width="1.51"/><path d="M-329,486L-429,727L-96,523Z" fill="#a8d5c4" stroke="#a8d5c4" stroke-width="1.51"/><path d="M-373,-313L-272,-158L-187,-197Z" fill="#f0f9ba" stroke="#f0f9ba" stroke-width="1.51"/><path d="M-272,-158L-373,-313L-241,154Z" fill="#e8f6bc" stroke="#e8f6bc" stroke-width="1.51"/><path d="M-429,727L-385,1260L-232,940Z" fill="#9eb2bf" stroke="#9eb2bf" stroke-width="1.51"/><path d="M-373,-313L-329,486L-241,154Z" fill="#d4eebf" stroke="#d4eebf" stroke-width="1.51"/><path d="M-373,-313L-429,727L-329,486Z" fill="#bee4c6" stroke="#bee4c6" stroke-width="1.51"/><path d="M-429,727L-408,1418L-385,1260Z" fill="#9da3bc" stroke="#9da3bc" stroke-width="1.51"/></svg>