<svg xmlns="http://www.w3.org/2000/svg" width="1920" height="1080"><path d="M614,1348L97,1389L1310,1437Z" fill="#cb6238" stroke="#cb6238" stroke-width="1.51"/><path d="M1395,-341L1510,-296L1847,-261Z" fill="#fe9d69" stroke="#fe9d69" stroke-width="1.51"/><path d="M1068,-387L1395,-341L2092,-316Z" fill="#ffa26f" stroke="#ffa26f" stroke-width="1.51"/><path d="M1395,-341L1847,-261L2092,-316Z" fill="#f59769" stroke="#f59769" stroke-width="1.51"/><path d="M2014,1092L1956,1344L2276,1057Z" fill="#be0525" stroke="#be0525" stroke-width="1.51"/><path d="M2200,801L2276,1057L2285,626Z" fill="#c42728" stroke="#c42728" stroke-width="1.51"/><path d="M1977,-62L1979,125L2295,-130Z" fill="#dd8353" stroke="#dd8353" stroke-width="1.51"/><path d="M1956,1344L1310,1437L2309,1449Z" fill="#b00525" stroke="#b00525" stroke-width="1.51"/><path d="M2276,1057L1956,1344L2309,1449Z" fill="#a90026" stroke="#a90026" stroke-width="1.51"/><path d="M2061,495L2285,626L2341,388Z" fill="#ca5533" stroke="#ca5533" stroke-width="1.51"/><path d="M2276,1057L2309,1449L2341,388Z" fill="#b81524" stroke="#b81524" stroke-width="1.51"/><path d="M2285,626L2276,1057L2341,388Z" fill="#c33b2d" stroke="#c33b2d" stroke-width="1.51"/><path d="M2295,-130L1979,125L2355,224Z" fill="#d07b4b" stroke="#d07b4b" stroke-width="1.51"/><path d="M2061,495L2341,388L2355,224Z" fill="#c96037" stroke="#c96037" stroke-width="1.51"/><path d="M1979,125L2061,495L2355,224Z" fill="#d56b3a" stroke="#d56b3a" stroke-width="1.51"/><path d="M2291,-209L2295,-130L2355,224Z" fill="#c87d55" stroke="#c87d55" stroke-width="1.51"/><path d="M2341,388L2309,1449L2355,224Z" fill="#c03a2d" stroke="#c03a2d" stroke-width="1.51"/><path d="M2200,801L2075,940L2276,1057Z" fill="#c51b24" stroke="#c51b24" stroke-width="1.51"/><path d="M2291,-209L2092,-316L2295,-130Z" fill="#d18663" stroke="#d18663" stroke-width="1.51"/><path d="M2092,-316L1977,-62L2295,-130Z" fill="#db885f" stroke="#db885f" stroke-width="1.51"/><path d="M2054,749L2200,801L2285,626Z" fill="#ce372b" stroke="#ce372b" stroke-width="1.51"/><path d="M2061,495L2054,749L2285,626Z" fill="#d3492e" stroke="#d3492e" stroke-width="1.51"/><path d="M2075,940L2014,1092L2276,1057Z" fill="#c50c22" stroke="#c50c22" stroke-width="1.51"/><path d="M1818,1289L1310,1437L1956,1344Z" fill="#c00c23" stroke="#c00c23" stroke-width="1.51"/><path d="M2054,749L2075,940L2200,801Z" fill="#d12927" stroke="#d12927" stroke-width="1.51"/><path d="M1848,1151L1956,1344L2014,1092Z" fill="#c50624" stroke="#c50624" stroke-width="1.51"/><path d="M1979,125L1705,357L2061,495Z" fill="#e56d36" stroke="#e56d36" stroke-width="1.51"/><path d="M1744,741L2054,749L2061,495Z" fill="#e1462c" stroke="#e1462c" stroke-width="1.51"/><path d="M1847,-261L1977,-62L2092,-316Z" fill="#e88e63" stroke="#e88e63" stroke-width="1.51"/><path d="M1744,741L1755,977L2054,749Z" fill="#e32f25" stroke="#e32f25" stroke-width="1.51"/><path d="M2054,749L1755,977L2075,940Z" fill="#d92424" stroke="#d92424" stroke-width="1.51"/><path d="M1755,977L2014,1092L2075,940Z" fill="#d41220" stroke="#d41220" stroke-width="1.51"/><path d="M1705,357L1744,741L2061,495Z" fill="#e75c2f" stroke="#e75c2f" stroke-width="1.51"/><path d="M1848,1151L1818,1289L1956,1344Z" fill="#c20625" stroke="#c20625" stroke-width="1.51"/><path d="M1755,977L1848,1151L2014,1092Z" fill="#d31021" stroke="#d31021" stroke-width="1.51"/><path d="M1680,51L1699,91L1977,-62Z" fill="#f0894c" stroke="#f0894c" stroke-width="1.51"/><path d="M1977,-62L1699,91L1979,125Z" fill="#ea864b" stroke="#ea864b" stroke-width="1.51"/><path d="M1699,91L1705,357L1979,125Z" fill="#ee7c3e" stroke="#ee7c3e" stroke-width="1.51"/><path d="M1847,-261L1680,51L1977,-62Z" fill="#ef8d57" stroke="#ef8d57" stroke-width="1.51"/><path d="M1482,1262L1310,1437L1818,1289Z" fill="#c91c25" stroke="#c91c25" stroke-width="1.51"/><path d="M1057,1348L614,1348L1310,1437Z" fill="#cb4f31" stroke="#cb4f31" stroke-width="1.51"/><path d="M1705,357L1506,426L1744,741Z" fill="#f2632d" stroke="#f2632d" stroke-width="1.51"/><path d="M1586,-133L1680,51L1847,-261Z" fill="#f79157" stroke="#f79157" stroke-width="1.51"/><path d="M1755,977L1572,972L1848,1151Z" fill="#dd171e" stroke="#dd171e" stroke-width="1.51"/><path d="M1572,972L1473,1220L1848,1151Z" fill="#db191f" stroke="#db191f" stroke-width="1.51"/><path d="M1473,1220L1818,1289L1848,1151Z" fill="#cf0e22" stroke="#cf0e22" stroke-width="1.51"/><path d="M1510,-296L1586,-133L1847,-261Z" fill="#fb9761" stroke="#fb9761" stroke-width="1.51"/><path d="M1506,426L1511,732L1744,741Z" fill="#f3562a" stroke="#f3562a" stroke-width="1.51"/><path d="M1473,1220L1482,1262L1818,1289Z" fill="#d11823" stroke="#d11823" stroke-width="1.51"/><path d="M1699,91L1540,285L1705,357Z" fill="#f47b38" stroke="#f47b38" stroke-width="1.51"/><path d="M1511,732L1572,972L1744,741Z" fill="#f03823" stroke="#f03823" stroke-width="1.51"/><path d="M1744,741L1572,972L1755,977Z" fill="#e82a20" stroke="#e82a20" stroke-width="1.51"/><path d="M1680,51L1540,285L1699,91Z" fill="#f78541" stroke="#f78541" stroke-width="1.51"/><path d="M1540,285L1506,426L1705,357Z" fill="#f67432" stroke="#f67432" stroke-width="1.51"/><path d="M1412,199L1540,285L1680,51Z" fill="#f98640" stroke="#f98640" stroke-width="1.51"/><path d="M1586,-133L1412,199L1680,51Z" fill="#fa904c" stroke="#fa904c" stroke-width="1.51"/><path d="M1506,426L1338,650L1511,732Z" fill="#f8612d" stroke="#f8612d" stroke-width="1.51"/><path d="M1511,732L1282,876L1572,972Z" fill="#f33e24" stroke="#f33e24" stroke-width="1.51"/><path d="M1510,-296L1243,-67L1586,-133Z" fill="#ff9e60" stroke="#ff9e60" stroke-width="1.51"/><path d="M1243,-67L1412,199L1586,-133Z" fill="#ff9853" stroke="#ff9853" stroke-width="1.51"/><path d="M1282,876L1473,1220L1572,972Z" fill="#ea2e21" stroke="#ea2e21" stroke-width="1.51"/><path d="M38,-311L349,-223L1068,-387Z" fill="#ffdc8b" stroke="#ffdc8b" stroke-width="1.51"/><path d="M1282,876L1225,1230L1473,1220Z" fill="#e73325" stroke="#e73325" stroke-width="1.51"/><path d="M1395,-341L1243,-67L1510,-296Z" fill="#ffa368" stroke="#ffa368" stroke-width="1.51"/><path d="M1412,199L1506,426L1540,285Z" fill="#f97d36" stroke="#f97d36" stroke-width="1.51"/><path d="M1412,199L1246,422L1506,426Z" fill="#fc7e37" stroke="#fc7e37" stroke-width="1.51"/><path d="M1246,422L1338,650L1506,426Z" fill="#fb7233" stroke="#fb7233" stroke-width="1.51"/><path d="M1338,650L1282,876L1511,732Z" fill="#fa4e29" stroke="#fa4e29" stroke-width="1.51"/><path d="M1473,1220L1225,1230L1482,1262Z" fill="#da2a27" stroke="#da2a27" stroke-width="1.51"/><path d="M1225,1230L1310,1437L1482,1262Z" fill="#d22d28" stroke="#d22d28" stroke-width="1.51"/><path d="M1068,-387L1243,-67L1395,-341Z" fill="#ffae6f" stroke="#ffae6f" stroke-width="1.51"/><path d="M1157,264L1246,422L1412,199Z" fill="#ff893c" stroke="#ff893c" stroke-width="1.51"/><path d="M1243,-67L1157,264L1412,199Z" fill="#ff984a" stroke="#ff984a" stroke-width="1.51"/><path d="M1078,931L1225,1230L1282,876Z" fill="#f04726" stroke="#f04726" stroke-width="1.51"/><path d="M1078,931L1011,1089L1225,1230Z" fill="#ea4f2a" stroke="#ea4f2a" stroke-width="1.51"/><path d="M1146,577L1282,876L1338,650Z" fill="#fd602e" stroke="#fd602e" stroke-width="1.51"/><path d="M1246,422L1146,577L1338,650Z" fill="#fd7534" stroke="#fd7534" stroke-width="1.51"/><path d="M349,-223L664,-200L1068,-387Z" fill="#ffcf7e" stroke="#ffcf7e" stroke-width="1.51"/><path d="M997,23L1157,264L1243,-67Z" fill="#ffa753" stroke="#ffa753" stroke-width="1.51"/><path d="M1146,577L1078,931L1282,876Z" fill="#fc5c2d" stroke="#fc5c2d" stroke-width="1.51"/><path d="M1225,1230L1057,1348L1310,1437Z" fill="#d03c2c" stroke="#d03c2c" stroke-width="1.51"/><path d="M762,1290L614,1348L1057,1348Z" fill="#d35d35" stroke="#d35d35" stroke-width="1.51"/><path d="M1068,-387L997,23L1243,-67Z" fill="#ffb267" stroke="#ffb267" stroke-width="1.51"/><path d="M1157,264L1061,454L1246,422Z" fill="#fe8b3c" stroke="#fe8b3c" stroke-width="1.51"/><path d="M1061,454L1146,577L1246,422Z" fill="#fd8339" stroke="#fd8339" stroke-width="1.51"/><path d="M1011,1089L1057,1348L1225,1230Z" fill="#df4b2d" stroke="#df4b2d" stroke-width="1.51"/><path d="M664,-200L773,-210L1068,-387Z" fill="#ffc87a" stroke="#ffc87a" stroke-width="1.51"/><path d="M773,-210L997,23L1068,-387Z" fill="#ffc071" stroke="#ffc071" stroke-width="1.51"/><path d="M764,618L905,974L1078,931Z" fill="#fa6e31" stroke="#fa6e31" stroke-width="1.51"/><path d="M764,618L1078,931L1146,577Z" fill="#fd7534" stroke="#fd7534" stroke-width="1.51"/><path d="M997,23L862,223L1157,264Z" fill="#ffa84f" stroke="#ffa84f" stroke-width="1.51"/><path d="M873,343L1061,454L1157,264Z" fill="#fe9740" stroke="#fe9740" stroke-width="1.51"/><path d="M862,223L873,343L1157,264Z" fill="#fea246" stroke="#fea246" stroke-width="1.51"/><path d="M1061,454L764,618L1146,577Z" fill="#fd8a3a" stroke="#fd8a3a" stroke-width="1.51"/><path d="M764,618L702,822L905,974Z" fill="#fd7835" stroke="#fd7835" stroke-width="1.51"/><path d="M1011,1089L922,1080L1057,1348Z" fill="#e4562e" stroke="#e4562e" stroke-width="1.51"/><path d="M922,1080L762,1290L1057,1348Z" fill="#de5a32" stroke="#de5a32" stroke-width="1.51"/><path d="M905,974L1011,1089L1078,931Z" fill="#f15c2b" stroke="#f15c2b" stroke-width="1.51"/><path d="M873,343L764,618L1061,454Z" fill="#fe9640" stroke="#fe9640" stroke-width="1.51"/><path d="M-118,1348L-428,1355L97,1389Z" fill="#d48762" stroke="#d48762" stroke-width="1.51"/><path d="M781,52L862,223L997,23Z" fill="#ffb558" stroke="#ffb558" stroke-width="1.51"/><path d="M773,-210L781,52L997,23Z" fill="#ffbe66" stroke="#ffbe66" stroke-width="1.51"/><path d="M905,974L922,1080L1011,1089Z" fill="#ee5f2d" stroke="#ee5f2d" stroke-width="1.51"/><path d="M650,493L764,618L873,343Z" fill="#fe9c42" stroke="#fe9c42" stroke-width="1.51"/><path d="M905,974L682,1035L922,1080Z" fill="#f1662e" stroke="#f1662e" stroke-width="1.51"/><path d="M682,1035L762,1290L922,1080Z" fill="#e86532" stroke="#e86532" stroke-width="1.51"/><path d="M702,822L682,1035L905,974Z" fill="#f67031" stroke="#f67031" stroke-width="1.51"/><path d="M862,223L502,247L873,343Z" fill="#feae4c" stroke="#feae4c" stroke-width="1.51"/><path d="M502,247L650,493L873,343Z" fill="#feaa48" stroke="#feaa48" stroke-width="1.51"/><path d="M773,-210L664,-200L781,52Z" fill="#ffc76f" stroke="#ffc76f" stroke-width="1.51"/><path d="M781,52L502,247L862,223Z" fill="#ffb856" stroke="#ffb856" stroke-width="1.51"/><path d="M297,1291L97,1389L614,1348Z" fill="#d47847" stroke="#d47847" stroke-width="1.51"/><path d="M682,1035L614,1348L762,1290Z" fill="#e16836" stroke="#e16836" stroke-width="1.51"/><path d="M533,594L702,822L764,618Z" fill="#fe8d3d" stroke="#fe8d3d" stroke-width="1.51"/><path d="M595,-4L502,247L781,52Z" fill="#ffc25e" stroke="#ffc25e" stroke-width="1.51"/><path d="M664,-200L595,-4L781,52Z" fill="#ffc76b" stroke="#ffc76b" stroke-width="1.51"/><path d="M650,493L533,594L764,618Z" fill="#fe9a42" stroke="#fe9a42" stroke-width="1.51"/><path d="M338,1190L614,1348L682,1035Z" fill="#e5723b" stroke="#e5723b" stroke-width="1.51"/><path d="M533,594L452,593L702,822Z" fill="#ff9441" stroke="#ff9441" stroke-width="1.51"/><path d="M452,593L316,982L702,822Z" fill="#ff8a40" stroke="#ff8a40" stroke-width="1.51"/><path d="M316,982L682,1035L702,822Z" fill="#f77c37" stroke="#f77c37" stroke-width="1.51"/><path d="M316,982L338,1190L682,1035Z" fill="#f07c3d" stroke="#f07c3d" stroke-width="1.51"/><path d="M502,247L369,326L650,493Z" fill="#ffb450" stroke="#ffb450" stroke-width="1.51"/><path d="M349,-223L595,-4L664,-200Z" fill="#ffd279" stroke="#ffd279" stroke-width="1.51"/><path d="M369,326L452,593L533,594Z" fill="#ffab4e" stroke="#ffab4e" stroke-width="1.51"/><path d="M396,84L502,247L595,-4Z" fill="#ffc964" stroke="#ffc964" stroke-width="1.51"/><path d="M369,326L533,594L650,493Z" fill="#feaa4c" stroke="#feaa4c" stroke-width="1.51"/><path d="M349,-223L318,-40L595,-4Z" fill="#ffd77b" stroke="#ffd77b" stroke-width="1.51"/><path d="M338,1190L297,1291L614,1348Z" fill="#dd7643" stroke="#dd7643" stroke-width="1.51"/><path d="M318,-40L396,84L595,-4Z" fill="#ffd271" stroke="#ffd271" stroke-width="1.51"/><path d="M124,569L316,982L452,593Z" fill="#ff9e4f" stroke="#ff9e4f" stroke-width="1.51"/><path d="M396,84L369,326L502,247Z" fill="#ffc45f" stroke="#ffc45f" stroke-width="1.51"/><path d="M124,569L63,930L316,982Z" fill="#ff9952" stroke="#ff9952" stroke-width="1.51"/><path d="M208,112L369,326L396,84Z" fill="#ffcd69" stroke="#ffcd69" stroke-width="1.51"/><path d="M369,326L132,507L452,593Z" fill="#ffb557" stroke="#ffb557" stroke-width="1.51"/><path d="M132,507L124,569L452,593Z" fill="#ffb259" stroke="#ffb259" stroke-width="1.51"/><path d="M316,982L205,1135L338,1190Z" fill="#ee8547" stroke="#ee8547" stroke-width="1.51"/><path d="M318,-40L208,112L396,84Z" fill="#fed774" stroke="#fed774" stroke-width="1.51"/><path d="M208,112L132,507L369,326Z" fill="#ffc562" stroke="#ffc562" stroke-width="1.51"/><path d="M68,-56L318,-40L349,-223Z" fill="#ffe187" stroke="#ffe187" stroke-width="1.51"/><path d="M38,-311L68,-56L349,-223Z" fill="#ffe794" stroke="#ffe794" stroke-width="1.51"/><path d="M205,1135L297,1291L338,1190Z" fill="#e58149" stroke="#e58149" stroke-width="1.51"/><path d="M68,-56L208,112L318,-40Z" fill="#ffdd80" stroke="#ffdd80" stroke-width="1.51"/><path d="M63,930L205,1135L316,982Z" fill="#f68b4a" stroke="#f68b4a" stroke-width="1.51"/><path d="M205,1135L97,1389L297,1291Z" fill="#df824f" stroke="#df824f" stroke-width="1.51"/><path d="M38,-311L-19,-245L68,-56Z" fill="#ffeb9c" stroke="#ffeb9c" stroke-width="1.51"/><path d="M-63,622L63,930L124,569Z" fill="#ffa85e" stroke="#ffa85e" stroke-width="1.51"/><path d="M-16,1195L97,1389L205,1135Z" fill="#e48654" stroke="#e48654" stroke-width="1.51"/><path d="M63,930L-16,1195L205,1135Z" fill="#f18c52" stroke="#f18c52" stroke-width="1.51"/><path d="M68,-56L-189,276L208,112Z" fill="#ffdc80" stroke="#ffdc80" stroke-width="1.51"/><path d="M7,506L132,507L208,112Z" fill="#ffc467" stroke="#ffc467" stroke-width="1.51"/><path d="M-189,276L7,506L208,112Z" fill="#ffcd70" stroke="#ffcd70" stroke-width="1.51"/><path d="M-195,-58L-189,276L68,-56Z" fill="#ffe38d" stroke="#ffe38d" stroke-width="1.51"/><path d="M7,506L124,569L132,507Z" fill="#ffb963" stroke="#ffb963" stroke-width="1.51"/><path d="M-125,957L-16,1195L63,930Z" fill="#f79157" stroke="#f79157" stroke-width="1.51"/><path d="M7,506L-63,622L124,569Z" fill="#ffb866" stroke="#ffb866" stroke-width="1.51"/><path d="M-63,622L-125,957L63,930Z" fill="#ff9e5d" stroke="#ff9e5d" stroke-width="1.51"/><path d="M-16,1195L-118,1348L97,1389Z" fill="#db865a" stroke="#db865a" stroke-width="1.51"/><path d="M-331,-272L-19,-245L38,-311Z" fill="#fff1ab" stroke="#fff1ab" stroke-width="1.51"/><path d="M-19,-245L-195,-58L68,-56Z" fill="#ffe999" stroke="#ffe999" stroke-width="1.51"/><path d="M-350,560L-63,622L7,506Z" fill="#ffbc6f" stroke="#ffbc6f" stroke-width="1.51"/><path d="M-189,276L-350,560L7,506Z" fill="#ffc776" stroke="#ffc776" stroke-width="1.51"/><path d="M-195,-58L-338,85L-189,276Z" fill="#ffe491" stroke="#ffe491" stroke-width="1.51"/><path d="M-350,560L-125,957L-63,622Z" fill="#ffad6b" stroke="#ffad6b" stroke-width="1.51"/><path d="M-284,-130L-195,-58L-19,-245Z" fill="#ffeda3" stroke="#ffeda3" stroke-width="1.51"/><path d="M-321,1096L-118,1348L-16,1195Z" fill="#e88e62" stroke="#e88e62" stroke-width="1.51"/><path d="M-125,957L-321,1096L-16,1195Z" fill="#f49360" stroke="#f49360" stroke-width="1.51"/><path d="M-331,-272L-284,-130L-19,-245Z" fill="#fff2ac" stroke="#fff2ac" stroke-width="1.51"/><path d="M-350,560L-438,916L-125,957Z" fill="#ffa76f" stroke="#ffa76f" stroke-width="1.51"/><path d="M-321,1096L-428,1355L-118,1348Z" fill="#e38f6a" stroke="#e38f6a" stroke-width="1.51"/><path d="M-438,916L-321,1096L-125,957Z" fill="#fc9b67" stroke="#fc9b67" stroke-width="1.51"/><path d="M-284,-130L-338,85L-195,-58Z" fill="#ffeca0" stroke="#ffeca0" stroke-width="1.51"/><path d="M-338,85L-429,508L-189,276Z" fill="#ffd686" stroke="#ffd686" stroke-width="1.51"/><path d="M-429,508L-350,560L-189,276Z" fill="#ffca7f" stroke="#ffca7f" stroke-width="1.51"/><path d="M-331,-272L-338,85L-284,-130Z" fill="#fff0a8" stroke="#fff0a8" stroke-width="1.51"/><path d="M-429,508L-438,916L-350,560Z" fill="#ffb87b" stroke="#ffb87b" stroke-width="1.51"/><path d="M-438,916L-428,1355L-321,1096Z" fill="#f3976e" stroke="#f3976e" stroke-width="1.51"/><path d="M-429,508L-338,85L-331,-272Z" fill="#ffe799" stroke="#ffe799" stroke-width="1.51"/></svg>