<svg xmlns="http://www.w3.org/2000/svg" width="1920" height="1080"><path d="M-137,-195L23,-212L324,-256Z" fill="#cc302b" stroke="#cc302b" stroke-width="1.51"/><path d="M392,1312L122,1320L578,1327Z" fill="#968748" stroke="#968748" stroke-width="1.51"/><path d="M578,1327L122,1320L697,1339Z" fill="#95914d" stroke="#95914d" stroke-width="1.51"/><path d="M324,-256L865,-204L1280,-237Z" fill="#e08c60" stroke="#e08c60" stroke-width="1.51"/><path d="M1321,1306L1076,1343L1600,1344Z" fill="#6da95a" stroke="#6da95a" stroke-width="1.51"/><path d="M324,-256L1280,-237L1956,-258Z" fill="#ce8e56" stroke="#ce8e56" stroke-width="1.51"/><path d="M1280,-237L1627,-216L1956,-258Z" fill="#a67d44" stroke="#a67d44" stroke-width="1.51"/><path d="M1758,1287L1600,1344L1964,1307Z" fill="#30924d" stroke="#30924d" stroke-width="1.51"/><path d="M1949,45L2086,117L2090,-57Z" fill="#997d41" stroke="#997d41" stroke-width="1.51"/><path d="M2090,-57L2086,117L2121,-170Z" fill="#916e38" stroke="#916e38" stroke-width="1.51"/><path d="M1931,399L2061,441L2126,290Z" fill="#94b166" stroke="#94b166" stroke-width="1.51"/><path d="M2086,117L1954,214L2126,290Z" fill="#989851" stroke="#989851" stroke-width="1.51"/><path d="M2121,-170L2086,117L2126,290Z" fill="#957d42" stroke="#957d42" stroke-width="1.51"/><path d="M2061,441L1957,579L2130,494Z" fill="#92bb79" stroke="#92bb79" stroke-width="1.51"/><path d="M2126,290L2061,441L2130,494Z" fill="#90ac67" stroke="#90ac67" stroke-width="1.51"/><path d="M2130,494L1957,579L2131,641Z" fill="#8cba78" stroke="#8cba78" stroke-width="1.51"/><path d="M1957,579L1916,739L2131,641Z" fill="#87bd70" stroke="#87bd70" stroke-width="1.51"/><path d="M1886,790L1989,986L2134,831Z" fill="#66af58" stroke="#66af58" stroke-width="1.51"/><path d="M1916,739L1886,790L2134,831Z" fill="#76b862" stroke="#76b862" stroke-width="1.51"/><path d="M1989,986L2045,1039L2134,831Z" fill="#53a354" stroke="#53a354" stroke-width="1.51"/><path d="M2131,641L1916,739L2134,831Z" fill="#79b362" stroke="#79b362" stroke-width="1.51"/><path d="M2045,1039L2092,1122L2134,831Z" fill="#479c51" stroke="#479c51" stroke-width="1.51"/><path d="M2130,494L2131,641L2134,831Z" fill="#80af68" stroke="#80af68" stroke-width="1.51"/><path d="M1954,214L1931,399L2126,290Z" fill="#99aa5f" stroke="#99aa5f" stroke-width="1.51"/><path d="M1956,-258L2090,-57L2121,-170Z" fill="#886333" stroke="#886333" stroke-width="1.51"/><path d="M1956,-258L1882,-74L2090,-57Z" fill="#936f37" stroke="#936f37" stroke-width="1.51"/><path d="M1901,1099L2064,1248L2092,1122Z" fill="#24934d" stroke="#24934d" stroke-width="1.51"/><path d="M2045,1039L1901,1099L2092,1122Z" fill="#369b51" stroke="#369b51" stroke-width="1.51"/><path d="M1882,-74L1949,45L2090,-57Z" fill="#9a7c3f" stroke="#9a7c3f" stroke-width="1.51"/><path d="M1949,45L1954,214L2086,117Z" fill="#9c904c" stroke="#9c904c" stroke-width="1.51"/><path d="M1931,399L1957,579L2061,441Z" fill="#96bf78" stroke="#96bf78" stroke-width="1.51"/><path d="M1901,1099L1964,1307L2064,1248Z" fill="#168f4b" stroke="#168f4b" stroke-width="1.51"/><path d="M1989,986L1901,1099L2045,1039Z" fill="#42a456" stroke="#42a456" stroke-width="1.51"/><path d="M1788,814L1792,1022L1886,790Z" fill="#75bf61" stroke="#75bf61" stroke-width="1.51"/><path d="M1781,229L1931,399L1954,214Z" fill="#a2b362" stroke="#a2b362" stroke-width="1.51"/><path d="M1949,45L1800,111L1954,214Z" fill="#a49a51" stroke="#a49a51" stroke-width="1.51"/><path d="M1627,-216L1775,-175L1956,-258Z" fill="#98763f" stroke="#98763f" stroke-width="1.51"/><path d="M1826,656L1916,739L1957,579Z" fill="#8ec775" stroke="#8ec775" stroke-width="1.51"/><path d="M1931,399L1781,562L1957,579Z" fill="#9dcc83" stroke="#9dcc83" stroke-width="1.51"/><path d="M1901,1099L1829,1156L1964,1307Z" fill="#249b52" stroke="#249b52" stroke-width="1.51"/><path d="M1792,1022L1901,1099L1989,986Z" fill="#4aac5a" stroke="#4aac5a" stroke-width="1.51"/><path d="M1886,790L1792,1022L1989,986Z" fill="#62b55c" stroke="#62b55c" stroke-width="1.51"/><path d="M1775,-175L1882,-74L1956,-258Z" fill="#96743c" stroke="#96743c" stroke-width="1.51"/><path d="M1829,1156L1758,1287L1964,1307Z" fill="#26964e" stroke="#26964e" stroke-width="1.51"/><path d="M1781,229L1740,374L1931,399Z" fill="#a8c06c" stroke="#a8c06c" stroke-width="1.51"/><path d="M1800,111L1781,229L1954,214Z" fill="#a9a859" stroke="#a9a859" stroke-width="1.51"/><path d="M1781,562L1826,656L1957,579Z" fill="#9ace7f" stroke="#9ace7f" stroke-width="1.51"/><path d="M1882,-74L1800,111L1949,45Z" fill="#a68c49" stroke="#a68c49" stroke-width="1.51"/><path d="M1740,374L1781,562L1931,399Z" fill="#a7cb7c" stroke="#a7cb7c" stroke-width="1.51"/><path d="M1731,-19L1800,111L1882,-74Z" fill="#ac8e4a" stroke="#ac8e4a" stroke-width="1.51"/><path d="M1826,656L1886,790L1916,739Z" fill="#87c56c" stroke="#87c56c" stroke-width="1.51"/><path d="M1826,656L1788,814L1886,790Z" fill="#88c76c" stroke="#88c76c" stroke-width="1.51"/><path d="M1792,1022L1829,1156L1901,1099Z" fill="#45aa59" stroke="#45aa59" stroke-width="1.51"/><path d="M1775,-175L1731,-19L1882,-74Z" fill="#a78241" stroke="#a78241" stroke-width="1.51"/><path d="M1740,374L1655,541L1781,562Z" fill="#b0d787" stroke="#b0d787" stroke-width="1.51"/><path d="M1788,814L1669,986L1792,1022Z" fill="#71bf62" stroke="#71bf62" stroke-width="1.51"/><path d="M1646,701L1788,814L1826,656Z" fill="#96d072" stroke="#96d072" stroke-width="1.51"/><path d="M1792,1022L1650,1175L1829,1156Z" fill="#4cad5b" stroke="#4cad5b" stroke-width="1.51"/><path d="M1650,1175L1758,1287L1829,1156Z" fill="#3ca456" stroke="#3ca456" stroke-width="1.51"/><path d="M1781,562L1646,701L1826,656Z" fill="#a1d47e" stroke="#a1d47e" stroke-width="1.51"/><path d="M1687,342L1740,374L1781,229Z" fill="#b2c36d" stroke="#b2c36d" stroke-width="1.51"/><path d="M1682,242L1687,342L1781,229Z" fill="#b5be68" stroke="#b5be68" stroke-width="1.51"/><path d="M1655,541L1646,701L1781,562Z" fill="#acda86" stroke="#acda86" stroke-width="1.51"/><path d="M1631,837L1669,986L1788,814Z" fill="#84c966" stroke="#84c966" stroke-width="1.51"/><path d="M1669,986L1650,1175L1792,1022Z" fill="#5eb860" stroke="#5eb860" stroke-width="1.51"/><path d="M1731,-19L1581,109L1800,111Z" fill="#b99e53" stroke="#b99e53" stroke-width="1.51"/><path d="M1581,109L1682,242L1800,111Z" fill="#baaf5c" stroke="#baaf5c" stroke-width="1.51"/><path d="M1682,242L1781,229L1800,111Z" fill="#b2b05d" stroke="#b2b05d" stroke-width="1.51"/><path d="M1654,-22L1581,109L1731,-19Z" fill="#bd9b51" stroke="#bd9b51" stroke-width="1.51"/><path d="M1654,-22L1731,-19L1775,-175Z" fill="#b08a46" stroke="#b08a46" stroke-width="1.51"/><path d="M1646,701L1631,837L1788,814Z" fill="#94d16e" stroke="#94d16e" stroke-width="1.51"/><path d="M1627,-216L1654,-22L1775,-175Z" fill="#ae8443" stroke="#ae8443" stroke-width="1.51"/><path d="M1687,342L1655,541L1740,374Z" fill="#b5d27d" stroke="#b5d27d" stroke-width="1.51"/><path d="M1650,1175L1600,1344L1758,1287Z" fill="#43a154" stroke="#43a154" stroke-width="1.51"/><path d="M1280,-237L1463,-164L1627,-216Z" fill="#bc8846" stroke="#bc8846" stroke-width="1.51"/><path d="M1511,1259L1600,1344L1650,1175Z" fill="#51a756" stroke="#51a756" stroke-width="1.51"/><path d="M1627,-216L1463,-164L1654,-22Z" fill="#ba8944" stroke="#ba8944" stroke-width="1.51"/><path d="M1462,343L1438,500L1655,541Z" fill="#cae187" stroke="#cae187" stroke-width="1.51"/><path d="M1490,1085L1650,1175L1669,986Z" fill="#69bc62" stroke="#69bc62" stroke-width="1.51"/><path d="M1459,231L1462,343L1682,242Z" fill="#cac96c" stroke="#cac96c" stroke-width="1.51"/><path d="M1682,242L1462,343L1687,342Z" fill="#c0ca6f" stroke="#c0ca6f" stroke-width="1.51"/><path d="M1462,343L1655,541L1687,342Z" fill="#c0d77d" stroke="#c0d77d" stroke-width="1.51"/><path d="M1464,673L1646,701L1655,541Z" fill="#b5df83" stroke="#b5df83" stroke-width="1.51"/><path d="M1631,837L1473,959L1669,986Z" fill="#88cb67" stroke="#88cb67" stroke-width="1.51"/><path d="M1581,109L1459,231L1682,242Z" fill="#c6bb62" stroke="#c6bb62" stroke-width="1.51"/><path d="M1463,-164L1471,-21L1654,-22Z" fill="#c49449" stroke="#c49449" stroke-width="1.51"/><path d="M1473,959L1490,1085L1669,986Z" fill="#7ec766" stroke="#7ec766" stroke-width="1.51"/><path d="M1488,814L1631,837L1646,701Z" fill="#a1d770" stroke="#a1d770" stroke-width="1.51"/><path d="M1471,-21L1581,109L1654,-22Z" fill="#c69f51" stroke="#c69f51" stroke-width="1.51"/><path d="M1438,500L1464,673L1655,541Z" fill="#c6e68e" stroke="#c6e68e" stroke-width="1.51"/><path d="M1464,673L1488,814L1646,701Z" fill="#b0dd76" stroke="#b0dd76" stroke-width="1.51"/><path d="M1490,1085L1511,1259L1650,1175Z" fill="#60b55d" stroke="#60b55d" stroke-width="1.51"/><path d="M1488,814L1473,959L1631,837Z" fill="#9bd369" stroke="#9bd369" stroke-width="1.51"/><path d="M1471,-21L1440,49L1581,109Z" fill="#cfa555" stroke="#cfa555" stroke-width="1.51"/><path d="M1511,1259L1321,1306L1600,1344Z" fill="#5ea754" stroke="#5ea754" stroke-width="1.51"/><path d="M1440,49L1459,231L1581,109Z" fill="#d0b55d" stroke="#d0b55d" stroke-width="1.51"/><path d="M1366,389L1438,500L1462,343Z" fill="#d6e281" stroke="#d6e281" stroke-width="1.51"/><path d="M1438,500L1371,652L1464,673Z" fill="#cce98b" stroke="#cce98b" stroke-width="1.51"/><path d="M1490,1085L1316,1094L1511,1259Z" fill="#74be60" stroke="#74be60" stroke-width="1.51"/><path d="M1316,1094L1321,1306L1511,1259Z" fill="#70b85f" stroke="#70b85f" stroke-width="1.51"/><path d="M1440,49L1374,244L1459,231Z" fill="#d8c063" stroke="#d8c063" stroke-width="1.51"/><path d="M1459,231L1374,244L1462,343Z" fill="#d6cf6e" stroke="#d6cf6e" stroke-width="1.51"/><path d="M1371,652L1318,823L1464,673Z" fill="#c4e67d" stroke="#c4e67d" stroke-width="1.51"/><path d="M1463,-164L1344,-88L1471,-21Z" fill="#ce964a" stroke="#ce964a" stroke-width="1.51"/><path d="M1318,823L1473,959L1488,814Z" fill="#a8da6c" stroke="#a8da6c" stroke-width="1.51"/><path d="M1464,673L1318,823L1488,814Z" fill="#b8e175" stroke="#b8e175" stroke-width="1.51"/><path d="M1473,959L1337,1018L1490,1085Z" fill="#8acd68" stroke="#8acd68" stroke-width="1.51"/><path d="M1337,1018L1316,1094L1490,1085Z" fill="#89ca68" stroke="#89ca68" stroke-width="1.51"/><path d="M1323,44L1374,244L1440,49Z" fill="#dcb760" stroke="#dcb760" stroke-width="1.51"/><path d="M1318,823L1337,1018L1473,959Z" fill="#a1d76d" stroke="#a1d76d" stroke-width="1.51"/><path d="M1341,495L1371,652L1438,500Z" fill="#d8ee97" stroke="#d8ee97" stroke-width="1.51"/><path d="M1344,-88L1440,49L1471,-21Z" fill="#d4a051" stroke="#d4a051" stroke-width="1.51"/><path d="M1344,-88L1323,44L1440,49Z" fill="#daa556" stroke="#daa556" stroke-width="1.51"/><path d="M1374,244L1366,389L1462,343Z" fill="#d8d876" stroke="#d8d876" stroke-width="1.51"/><path d="M1280,-237L1344,-88L1463,-164Z" fill="#cc904b" stroke="#cc904b" stroke-width="1.51"/><path d="M1366,389L1341,495L1438,500Z" fill="#dae78c" stroke="#dae78c" stroke-width="1.51"/><path d="M324,-256L719,-178L865,-204Z" fill="#e07f4f" stroke="#e07f4f" stroke-width="1.51"/><path d="M865,-204L1005,-157L1280,-237Z" fill="#e19665" stroke="#e19665" stroke-width="1.51"/><path d="M1316,1094L1203,1144L1321,1306Z" fill="#80c268" stroke="#80c268" stroke-width="1.51"/><path d="M1318,823L1212,893L1337,1018Z" fill="#afdd73" stroke="#afdd73" stroke-width="1.51"/><path d="M1280,-237L1232,-195L1344,-88Z" fill="#d29250" stroke="#d29250" stroke-width="1.51"/><path d="M1224,736L1318,823L1371,652Z" fill="#c9e881" stroke="#c9e881" stroke-width="1.51"/><path d="M1341,495L1181,498L1371,652Z" fill="#e1f29d" stroke="#e1f29d" stroke-width="1.51"/><path d="M1181,498L1224,736L1371,652Z" fill="#dcf093" stroke="#dcf093" stroke-width="1.51"/><path d="M1323,44L1224,105L1374,244Z" fill="#e3bd66" stroke="#e3bd66" stroke-width="1.51"/><path d="M1224,105L1178,191L1374,244Z" fill="#e8c86f" stroke="#e8c86f" stroke-width="1.51"/><path d="M1171,421L1366,389L1374,244Z" fill="#e2e081" stroke="#e2e081" stroke-width="1.51"/><path d="M1178,191L1171,421L1374,244Z" fill="#e9d97c" stroke="#e9d97c" stroke-width="1.51"/><path d="M1203,1144L1174,1241L1321,1306Z" fill="#80bd68" stroke="#80bd68" stroke-width="1.51"/><path d="M1171,421L1341,495L1366,389Z" fill="#e3e98e" stroke="#e3e98e" stroke-width="1.51"/><path d="M1005,-157L1232,-195L1280,-237Z" fill="#d89358" stroke="#d89358" stroke-width="1.51"/><path d="M1212,893L1159,947L1337,1018Z" fill="#addc76" stroke="#addc76" stroke-width="1.51"/><path d="M1171,421L1181,498L1341,495Z" fill="#e9ef98" stroke="#e9ef98" stroke-width="1.51"/><path d="M1180,-9L1323,44L1344,-88Z" fill="#e1a55a" stroke="#e1a55a" stroke-width="1.51"/><path d="M1232,-195L1180,-9L1344,-88Z" fill="#de9b55" stroke="#de9b55" stroke-width="1.51"/><path d="M1174,1241L1076,1343L1321,1306Z" fill="#7fb566" stroke="#7fb566" stroke-width="1.51"/><path d="M1159,947L1316,1094L1337,1018Z" fill="#9cd572" stroke="#9cd572" stroke-width="1.51"/><path d="M1159,947L1203,1144L1316,1094Z" fill="#9ad273" stroke="#9ad273" stroke-width="1.51"/><path d="M1180,-9L1224,105L1323,44Z" fill="#e9b063" stroke="#e9b063" stroke-width="1.51"/><path d="M1224,736L1212,893L1318,823Z" fill="#c2e57c" stroke="#c2e57c" stroke-width="1.51"/><path d="M1159,947L1089,1019L1203,1144Z" fill="#a5d87c" stroke="#a5d87c" stroke-width="1.51"/><path d="M1181,498L1043,662L1224,736Z" fill="#e6f49c" stroke="#e6f49c" stroke-width="1.51"/><path d="M843,1290L697,1339L1076,1343Z" fill="#8fb372" stroke="#8fb372" stroke-width="1.51"/><path d="M1010,380L1171,421L1178,191Z" fill="#f3e48e" stroke="#f3e48e" stroke-width="1.51"/><path d="M984,257L1010,380L1178,191Z" fill="#f9de8e" stroke="#f9de8e" stroke-width="1.51"/><path d="M1080,832L1212,893L1224,736Z" fill="#cae982" stroke="#cae982" stroke-width="1.51"/><path d="M1005,-157L1180,-9L1232,-195Z" fill="#e79b5c" stroke="#e79b5c" stroke-width="1.51"/><path d="M1005,-157L1046,-6L1180,-9Z" fill="#f0a669" stroke="#f0a669" stroke-width="1.51"/><path d="M1043,662L1080,832L1224,736Z" fill="#daf090" stroke="#daf090" stroke-width="1.51"/><path d="M1180,-9L1078,143L1224,105Z" fill="#f0b96d" stroke="#f0b96d" stroke-width="1.51"/><path d="M1078,143L1178,191L1224,105Z" fill="#f1c574" stroke="#f1c574" stroke-width="1.51"/><path d="M1080,832L1159,947L1212,893Z" fill="#c0e47f" stroke="#c0e47f" stroke-width="1.51"/><path d="M1046,-6L1078,143L1180,-9Z" fill="#f5b470" stroke="#f5b470" stroke-width="1.51"/><path d="M1005,1175L1174,1241L1203,1144Z" fill="#8ec875" stroke="#8ec875" stroke-width="1.51"/><path d="M1089,1019L1005,1175L1203,1144Z" fill="#9dd17d" stroke="#9dd17d" stroke-width="1.51"/><path d="M1078,143L984,257L1178,191Z" fill="#f8d181" stroke="#f8d181" stroke-width="1.51"/><path d="M1171,421L999,485L1181,498Z" fill="#f3f3a3" stroke="#f3f3a3" stroke-width="1.51"/><path d="M999,485L1043,662L1181,498Z" fill="#f5fbb1" stroke="#f5fbb1" stroke-width="1.51"/><path d="M1005,1175L1076,1343L1174,1241Z" fill="#8abf74" stroke="#8abf74" stroke-width="1.51"/><path d="M1010,380L999,485L1171,421Z" fill="#f7f1a2" stroke="#f7f1a2" stroke-width="1.51"/><path d="M1080,832L1089,1019L1159,947Z" fill="#bce283" stroke="#bce283" stroke-width="1.51"/><path d="M324,-256L593,-168L719,-178Z" fill="#e17648" stroke="#e17648" stroke-width="1.51"/><path d="M1046,-6L938,52L1078,143Z" fill="#fcba7a" stroke="#fcba7a" stroke-width="1.51"/><path d="M1043,662L880,720L1080,832Z" fill="#e4f49d" stroke="#e4f49d" stroke-width="1.51"/><path d="M890,1112L1005,1175L1089,1019Z" fill="#a7d688" stroke="#a7d688" stroke-width="1.51"/><path d="M908,968L890,1112L1089,1019Z" fill="#b5de90" stroke="#b5de90" stroke-width="1.51"/><path d="M1080,832L908,968L1089,1019Z" fill="#c1e48c" stroke="#c1e48c" stroke-width="1.51"/><path d="M1005,-157L930,-23L1046,-6Z" fill="#f6a871" stroke="#f6a871" stroke-width="1.51"/><path d="M1005,1175L843,1290L1076,1343Z" fill="#92c07e" stroke="#92c07e" stroke-width="1.51"/><path d="M925,206L984,257L1078,143Z" fill="#fed48a" stroke="#fed48a" stroke-width="1.51"/><path d="M856,862L908,968L1080,832Z" fill="#d0ea92" stroke="#d0ea92" stroke-width="1.51"/><path d="M880,720L856,862L1080,832Z" fill="#ddef99" stroke="#ddef99" stroke-width="1.51"/><path d="M938,52L925,206L1078,143Z" fill="#ffc886" stroke="#ffc886" stroke-width="1.51"/><path d="M999,485L863,506L1043,662Z" fill="#fefebd" stroke="#fefebd" stroke-width="1.51"/><path d="M863,506L880,720L1043,662Z" fill="#f5f9ae" stroke="#f5f9ae" stroke-width="1.51"/><path d="M930,-23L938,52L1046,-6Z" fill="#fdb27a" stroke="#fdb27a" stroke-width="1.51"/><path d="M890,1112L843,1290L1005,1175Z" fill="#9bca81" stroke="#9bca81" stroke-width="1.51"/><path d="M865,-204L930,-23L1005,-157Z" fill="#f39e6c" stroke="#f39e6c" stroke-width="1.51"/><path d="M902,445L999,485L1010,380Z" fill="#fef5ad" stroke="#fef5ad" stroke-width="1.51"/><path d="M984,257L902,445L1010,380Z" fill="#ffeda2" stroke="#ffeda2" stroke-width="1.51"/><path d="M925,206L753,338L984,257Z" fill="#ffda8f" stroke="#ffda8f" stroke-width="1.51"/><path d="M753,338L902,445L984,257Z" fill="#ffe699" stroke="#ffe699" stroke-width="1.51"/><path d="M902,445L863,506L999,485Z" fill="#fff6b1" stroke="#fff6b1" stroke-width="1.51"/><path d="M863,506L730,590L880,720Z" fill="#f8f3a6" stroke="#f8f3a6" stroke-width="1.51"/><path d="M742,280L753,338L925,206Z" fill="#ffd787" stroke="#ffd787" stroke-width="1.51"/><path d="M865,-204L770,-27L930,-23Z" fill="#f59e68" stroke="#f59e68" stroke-width="1.51"/><path d="M730,56L925,206L938,52Z" fill="#ffbd7b" stroke="#ffbd7b" stroke-width="1.51"/><path d="M930,-23L770,-27L938,52Z" fill="#fcad72" stroke="#fcad72" stroke-width="1.51"/><path d="M770,-27L730,56L938,52Z" fill="#fdac6e" stroke="#fdac6e" stroke-width="1.51"/><path d="M730,590L729,662L880,720Z" fill="#f2ee99" stroke="#f2ee99" stroke-width="1.51"/><path d="M771,1131L843,1290L890,1112Z" fill="#9ec77a" stroke="#9ec77a" stroke-width="1.51"/><path d="M730,56L742,280L925,206Z" fill="#ffc77b" stroke="#ffc77b" stroke-width="1.51"/><path d="M771,1131L890,1112L908,968Z" fill="#b0d483" stroke="#b0d483" stroke-width="1.51"/><path d="M856,862L724,936L908,968Z" fill="#cae085" stroke="#cae085" stroke-width="1.51"/><path d="M724,936L771,1131L908,968Z" fill="#bad680" stroke="#bad680" stroke-width="1.51"/><path d="M719,-178L770,-27L865,-204Z" fill="#ef935d" stroke="#ef935d" stroke-width="1.51"/><path d="M740,836L856,862L880,720Z" fill="#dde88d" stroke="#dde88d" stroke-width="1.51"/><path d="M753,338L863,506L902,445Z" fill="#ffeca0" stroke="#ffeca0" stroke-width="1.51"/><path d="M729,662L740,836L880,720Z" fill="#e7e98f" stroke="#e7e98f" stroke-width="1.51"/><path d="M753,338L730,590L863,506Z" fill="#ffeda1" stroke="#ffeda1" stroke-width="1.51"/><path d="M740,836L724,936L856,862Z" fill="#d2e081" stroke="#d2e081" stroke-width="1.51"/><path d="M603,422L730,590L753,338Z" fill="#ffe495" stroke="#ffe495" stroke-width="1.51"/><path d="M771,1131L697,1339L843,1290Z" fill="#97b86e" stroke="#97b86e" stroke-width="1.51"/><path d="M35,1291L-128,1257L122,1320Z" fill="#906934" stroke="#906934" stroke-width="1.51"/><path d="M596,92L611,228L730,56Z" fill="#fdb067" stroke="#fdb067" stroke-width="1.51"/><path d="M603,422L629,594L730,590Z" fill="#ffe89e" stroke="#ffe89e" stroke-width="1.51"/><path d="M729,662L629,819L740,836Z" fill="#e2e182" stroke="#e2e182" stroke-width="1.51"/><path d="M730,56L611,228L742,280Z" fill="#fec171" stroke="#fec171" stroke-width="1.51"/><path d="M719,-178L593,-168L770,-27Z" fill="#ef8d54" stroke="#ef8d54" stroke-width="1.51"/><path d="M593,-168L531,-17L770,-27Z" fill="#f28e53" stroke="#f28e53" stroke-width="1.51"/><path d="M724,936L568,997L771,1131Z" fill="#bacd74" stroke="#bacd74" stroke-width="1.51"/><path d="M568,997L605,1181L771,1131Z" fill="#adc16c" stroke="#adc16c" stroke-width="1.51"/><path d="M605,1181L697,1339L771,1131Z" fill="#9bb869" stroke="#9bb869" stroke-width="1.51"/><path d="M531,-17L730,56L770,-27Z" fill="#f99e5e" stroke="#f99e5e" stroke-width="1.51"/><path d="M742,280L603,422L753,338Z" fill="#feda85" stroke="#feda85" stroke-width="1.51"/><path d="M545,684L629,819L729,662Z" fill="#eade82" stroke="#eade82" stroke-width="1.51"/><path d="M531,-17L596,92L730,56Z" fill="#fb9e5d" stroke="#fb9e5d" stroke-width="1.51"/><path d="M629,819L724,936L740,836Z" fill="#d5db79" stroke="#d5db79" stroke-width="1.51"/><path d="M611,228L603,422L742,280Z" fill="#fecf7c" stroke="#fecf7c" stroke-width="1.51"/><path d="M629,594L729,662L730,590Z" fill="#f7ea97" stroke="#f7ea97" stroke-width="1.51"/><path d="M605,1181L578,1327L697,1339Z" fill="#96a85e" stroke="#96a85e" stroke-width="1.51"/><path d="M629,594L545,684L729,662Z" fill="#f4e28c" stroke="#f4e28c" stroke-width="1.51"/><path d="M629,819L568,997L724,936Z" fill="#ccd272" stroke="#ccd272" stroke-width="1.51"/><path d="M324,-256L434,-161L593,-168Z" fill="#e06a41" stroke="#e06a41" stroke-width="1.51"/><path d="M274,1290L122,1320L392,1312Z" fill="#977e43" stroke="#977e43" stroke-width="1.51"/><path d="M568,997L472,1136L605,1181Z" fill="#aeb764" stroke="#aeb764" stroke-width="1.51"/><path d="M433,269L603,422L611,228Z" fill="#fec473" stroke="#fec473" stroke-width="1.51"/><path d="M603,422L381,524L629,594Z" fill="#ffda91" stroke="#ffda91" stroke-width="1.51"/><path d="M381,524L545,684L629,594Z" fill="#fad88a" stroke="#fad88a" stroke-width="1.51"/><path d="M442,844L568,997L629,819Z" fill="#d3cb6a" stroke="#d3cb6a" stroke-width="1.51"/><path d="M545,684L442,844L629,819Z" fill="#e2d173" stroke="#e2d173" stroke-width="1.51"/><path d="M434,-161L531,-17L593,-168Z" fill="#ed7b47" stroke="#ed7b47" stroke-width="1.51"/><path d="M433,269L388,384L603,422Z" fill="#fec473" stroke="#fec473" stroke-width="1.51"/><path d="M472,1136L578,1327L605,1181Z" fill="#9eab5d" stroke="#9eab5d" stroke-width="1.51"/><path d="M596,92L433,269L611,228Z" fill="#feb365" stroke="#feb365" stroke-width="1.51"/><path d="M472,1136L392,1312L578,1327Z" fill="#9b9e54" stroke="#9b9e54" stroke-width="1.51"/><path d="M408,37L433,269L596,92Z" fill="#fca05a" stroke="#fca05a" stroke-width="1.51"/><path d="M388,384L381,524L603,422Z" fill="#ffcb7f" stroke="#ffcb7f" stroke-width="1.51"/><path d="M381,524L400,673L545,684Z" fill="#f7ce7f" stroke="#f7ce7f" stroke-width="1.51"/><path d="M531,-17L460,-8L596,92Z" fill="#f89153" stroke="#f89153" stroke-width="1.51"/><path d="M460,-8L408,37L596,92Z" fill="#f98f52" stroke="#f98f52" stroke-width="1.51"/><path d="M390,1018L472,1136L568,997Z" fill="#b8b761" stroke="#b8b761" stroke-width="1.51"/><path d="M442,844L390,1018L568,997Z" fill="#c8be63" stroke="#c8be63" stroke-width="1.51"/><path d="M434,-161L460,-8L531,-17Z" fill="#f17e48" stroke="#f17e48" stroke-width="1.51"/><path d="M408,37L329,108L433,269Z" fill="#fa9554" stroke="#fa9554" stroke-width="1.51"/><path d="M400,673L442,844L545,684Z" fill="#eacb72" stroke="#eacb72" stroke-width="1.51"/><path d="M23,-212L140,-198L324,-256Z" fill="#d13d30" stroke="#d13d30" stroke-width="1.51"/><path d="M242,-75L408,37L434,-161Z" fill="#ee6d41" stroke="#ee6d41" stroke-width="1.51"/><path d="M400,673L314,744L442,844Z" fill="#e7c16a" stroke="#e7c16a" stroke-width="1.51"/><path d="M434,-161L408,37L460,-8Z" fill="#f27b47" stroke="#f27b47" stroke-width="1.51"/><path d="M310,1193L392,1312L472,1136Z" fill="#a09a52" stroke="#a09a52" stroke-width="1.51"/><path d="M390,1018L310,1193L472,1136Z" fill="#aea658" stroke="#aea658" stroke-width="1.51"/><path d="M329,108L315,267L433,269Z" fill="#fb9f5a" stroke="#fb9f5a" stroke-width="1.51"/><path d="M265,947L390,1018L442,844Z" fill="#cbb35c" stroke="#cbb35c" stroke-width="1.51"/><path d="M314,744L300,798L442,844Z" fill="#e1bb64" stroke="#e1bb64" stroke-width="1.51"/><path d="M381,524L309,552L400,673Z" fill="#fcc680" stroke="#fcc680" stroke-width="1.51"/><path d="M315,267L388,384L433,269Z" fill="#fdb066" stroke="#fdb066" stroke-width="1.51"/><path d="M300,798L265,947L442,844Z" fill="#d7b45c" stroke="#d7b45c" stroke-width="1.51"/><path d="M324,-256L242,-75L434,-161Z" fill="#e15c3a" stroke="#e15c3a" stroke-width="1.51"/><path d="M315,267L270,342L388,384Z" fill="#fdad66" stroke="#fdad66" stroke-width="1.51"/><path d="M309,552L381,524L388,384Z" fill="#ffc27f" stroke="#ffc27f" stroke-width="1.51"/><path d="M310,1193L274,1290L392,1312Z" fill="#9c8b49" stroke="#9c8b49" stroke-width="1.51"/><path d="M242,-75L329,108L408,37Z" fill="#f47646" stroke="#f47646" stroke-width="1.51"/><path d="M270,342L309,552L388,384Z" fill="#ffb873" stroke="#ffb873" stroke-width="1.51"/><path d="M265,947L310,1193L390,1018Z" fill="#b9a456" stroke="#b9a456" stroke-width="1.51"/><path d="M309,552L314,744L400,673Z" fill="#f4c174" stroke="#f4c174" stroke-width="1.51"/><path d="M265,947L142,1024L310,1193Z" fill="#b99b51" stroke="#b99b51" stroke-width="1.51"/><path d="M148,-48L106,37L242,-75Z" fill="#e95838" stroke="#e95838" stroke-width="1.51"/><path d="M270,342L83,410L309,552Z" fill="#fdac6e" stroke="#fdac6e" stroke-width="1.51"/><path d="M83,410L157,594L309,552Z" fill="#fdb078" stroke="#fdb078" stroke-width="1.51"/><path d="M142,1024L136,1154L310,1193Z" fill="#ac8f4b" stroke="#ac8f4b" stroke-width="1.51"/><path d="M309,552L157,594L314,744Z" fill="#f6b772" stroke="#f6b772" stroke-width="1.51"/><path d="M157,594L159,730L314,744Z" fill="#eeaf66" stroke="#eeaf66" stroke-width="1.51"/><path d="M140,-198L242,-75L324,-256Z" fill="#dd4b34" stroke="#dd4b34" stroke-width="1.51"/><path d="M242,-75L106,37L329,108Z" fill="#f16840" stroke="#f16840" stroke-width="1.51"/><path d="M88,219L315,267L329,108Z" fill="#f98d51" stroke="#f98d51" stroke-width="1.51"/><path d="M106,37L88,219L329,108Z" fill="#f37646" stroke="#f37646" stroke-width="1.51"/><path d="M139,799L265,947L300,798Z" fill="#d9a957" stroke="#d9a957" stroke-width="1.51"/><path d="M88,219L270,342L315,267Z" fill="#fa9859" stroke="#fa9859" stroke-width="1.51"/><path d="M159,730L300,798L314,744Z" fill="#e6b162" stroke="#e6b162" stroke-width="1.51"/><path d="M136,1154L274,1290L310,1193Z" fill="#a18948" stroke="#a18948" stroke-width="1.51"/><path d="M159,730L139,799L300,798Z" fill="#e1aa5c" stroke="#e1aa5c" stroke-width="1.51"/><path d="M136,1154L122,1320L274,1290Z" fill="#9b7e41" stroke="#9b7e41" stroke-width="1.51"/><path d="M139,799L142,1024L265,947Z" fill="#cb9f51" stroke="#cb9f51" stroke-width="1.51"/><path d="M88,219L83,410L270,342Z" fill="#f7985a" stroke="#f7985a" stroke-width="1.51"/><path d="M140,-198L148,-48L242,-75Z" fill="#e34c32" stroke="#e34c32" stroke-width="1.51"/><path d="M36,121L88,219L106,37Z" fill="#ed6c40" stroke="#ed6c40" stroke-width="1.51"/><path d="M35,1291L122,1320L136,1154Z" fill="#97763c" stroke="#97763c" stroke-width="1.51"/><path d="M-47,1145L136,1154L142,1024Z" fill="#aa8644" stroke="#aa8644" stroke-width="1.51"/><path d="M139,799L-36,840L142,1024Z" fill="#cc984b" stroke="#cc984b" stroke-width="1.51"/><path d="M-36,840L-39,995L142,1024Z" fill="#bf8e46" stroke="#bf8e46" stroke-width="1.51"/><path d="M140,-198L23,-212L148,-48Z" fill="#d93c2d" stroke="#d93c2d" stroke-width="1.51"/><path d="M23,-212L-35,-44L148,-48Z" fill="#dc3b2b" stroke="#dc3b2b" stroke-width="1.51"/><path d="M83,410L-37,550L157,594Z" fill="#f7a570" stroke="#f7a570" stroke-width="1.51"/><path d="M157,594L0,703L159,730Z" fill="#eaa661" stroke="#eaa661" stroke-width="1.51"/><path d="M0,703L139,799L159,730Z" fill="#e1a258" stroke="#e1a258" stroke-width="1.51"/><path d="M-37,550L0,703L157,594Z" fill="#eea166" stroke="#eea166" stroke-width="1.51"/><path d="M-39,995L-47,1145L142,1024Z" fill="#af8643" stroke="#af8643" stroke-width="1.51"/><path d="M-35,-44L106,37L148,-48Z" fill="#e54f33" stroke="#e54f33" stroke-width="1.51"/><path d="M-24,393L83,410L88,219Z" fill="#f29055" stroke="#f29055" stroke-width="1.51"/><path d="M-47,1145L35,1291L136,1154Z" fill="#9b7a3d" stroke="#9b7a3d" stroke-width="1.51"/><path d="M0,703L-36,840L139,799Z" fill="#d99951" stroke="#d99951" stroke-width="1.51"/><path d="M-14,214L-24,393L88,219Z" fill="#ef824b" stroke="#ef824b" stroke-width="1.51"/><path d="M-24,393L-37,550L83,410Z" fill="#f39862" stroke="#f39862" stroke-width="1.51"/><path d="M-35,-44L36,121L106,37Z" fill="#e75436" stroke="#e75436" stroke-width="1.51"/><path d="M36,121L-14,214L88,219Z" fill="#ee7543" stroke="#ee7543" stroke-width="1.51"/><path d="M-137,-195L-35,-44L23,-212Z" fill="#cd2927" stroke="#cd2927" stroke-width="1.51"/><path d="M-47,1145L-128,1257L35,1291Z" fill="#906e38" stroke="#906e38" stroke-width="1.51"/><path d="M-129,45L-14,214L36,121Z" fill="#e5623c" stroke="#e5623c" stroke-width="1.51"/><path d="M-35,-44L-129,45L36,121Z" fill="#e14e34" stroke="#e14e34" stroke-width="1.51"/><path d="M-192,377L-37,550L-24,393Z" fill="#e9915f" stroke="#e9915f" stroke-width="1.51"/><path d="M-129,45L-204,208L-14,214Z" fill="#de633e" stroke="#de633e" stroke-width="1.51"/><path d="M-192,377L-24,393L-14,214Z" fill="#e78450" stroke="#e78450" stroke-width="1.51"/><path d="M-204,208L-192,377L-14,214Z" fill="#df7649" stroke="#df7649" stroke-width="1.51"/><path d="M-37,550L-173,691L0,703Z" fill="#e1975e" stroke="#e1975e" stroke-width="1.51"/><path d="M-172,788L-36,840L0,703Z" fill="#d0914f" stroke="#d0914f" stroke-width="1.51"/><path d="M-173,691L-172,788L0,703Z" fill="#d29154" stroke="#d29154" stroke-width="1.51"/><path d="M-198,1035L-47,1145L-39,995Z" fill="#a47d41" stroke="#a47d41" stroke-width="1.51"/><path d="M-172,788L-198,1035L-39,995Z" fill="#b18345" stroke="#b18345" stroke-width="1.51"/><path d="M-201,573L-173,691L-37,550Z" fill="#de9465" stroke="#de9465" stroke-width="1.51"/><path d="M-192,377L-201,573L-37,550Z" fill="#e49268" stroke="#e49268" stroke-width="1.51"/><path d="M-172,788L-39,995L-36,840Z" fill="#c18b46" stroke="#c18b46" stroke-width="1.51"/><path d="M-160,1188L-128,1257L-47,1145Z" fill="#8d6e3a" stroke="#8d6e3a" stroke-width="1.51"/><path d="M-137,-195L-199,-46L-35,-44Z" fill="#cc2d29" stroke="#cc2d29" stroke-width="1.51"/><path d="M-199,-46L-129,45L-35,-44Z" fill="#d43e30" stroke="#d43e30" stroke-width="1.51"/><path d="M-198,1035L-160,1188L-47,1145Z" fill="#96743e" stroke="#96743e" stroke-width="1.51"/><path d="M-199,-46L-204,208L-129,45Z" fill="#d44b37" stroke="#d44b37" stroke-width="1.51"/><path d="M-173,691L-201,573L-172,788Z" fill="#d18f59" stroke="#d18f59" stroke-width="1.51"/><path d="M-201,573L-198,1035L-172,788Z" fill="#c0894c" stroke="#c0894c" stroke-width="1.51"/><path d="M-204,208L-201,573L-192,377Z" fill="#db8457" stroke="#db8457" stroke-width="1.51"/></svg>