<svg xmlns="http://www.w3.org/2000/svg" width="1920" height="1080"><path d="M614,1348L97,1389L1310,1437Z" fill="#529258" stroke="#529258" stroke-width="1.51"/><path d="M1395,-341L1510,-296L1847,-261Z" fill="#93c698" stroke="#93c698" stroke-width="1.51"/><path d="M1068,-387L1395,-341L2092,-316Z" fill="#97c99d" stroke="#97c99d" stroke-width="1.51"/><path d="M1395,-341L1847,-261L2092,-316Z" fill="#8cbd92" stroke="#8cbd92" stroke-width="1.51"/><path d="M2014,1092L1956,1344L2276,1057Z" fill="#066e2e" stroke="#066e2e" stroke-width="1.51"/><path d="M2200,801L2276,1057L2285,626Z" fill="#1f793b" stroke="#1f793b" stroke-width="1.51"/><path d="M1977,-62L1979,125L2295,-130Z" fill="#74a877" stroke="#74a877" stroke-width="1.51"/><path d="M1956,1344L1310,1437L2309,1449Z" fill="#08652b" stroke="#08652b" stroke-width="1.51"/><path d="M2276,1057L1956,1344L2309,1449Z" fill="#006026" stroke="#006026" stroke-width="1.51"/><path d="M2061,495L2285,626L2341,388Z" fill="#438c4d" stroke="#438c4d" stroke-width="1.51"/><path d="M2276,1057L2309,1449L2341,388Z" fill="#156d33" stroke="#156d33" stroke-width="1.51"/><path d="M2285,626L2276,1057L2341,388Z" fill="#2d7e40" stroke="#2d7e40" stroke-width="1.51"/><path d="M2295,-130L1979,125L2355,224Z" fill="#6a9d6d" stroke="#6a9d6d" stroke-width="1.51"/><path d="M2061,495L2341,388L2355,224Z" fill="#509056" stroke="#509056" stroke-width="1.51"/><path d="M1979,125L2061,495L2355,224Z" fill="#5b9b60" stroke="#5b9b60" stroke-width="1.51"/><path d="M2291,-209L2295,-130L2355,224Z" fill="#6e9971" stroke="#6e9971" stroke-width="1.51"/><path d="M2341,388L2309,1449L2355,224Z" fill="#2d7c40" stroke="#2d7c40" stroke-width="1.51"/><path d="M2200,801L2075,940L2276,1057Z" fill="#187638" stroke="#187638" stroke-width="1.51"/><path d="M2291,-209L2092,-316L2295,-130Z" fill="#7aa37e" stroke="#7aa37e" stroke-width="1.51"/><path d="M2092,-316L1977,-62L2295,-130Z" fill="#7ca97f" stroke="#7ca97f" stroke-width="1.51"/><path d="M2054,749L2200,801L2285,626Z" fill="#2a8442" stroke="#2a8442" stroke-width="1.51"/><path d="M2061,495L2054,749L2285,626Z" fill="#378c48" stroke="#378c48" stroke-width="1.51"/><path d="M2075,940L2014,1092L2276,1057Z" fill="#127435" stroke="#127435" stroke-width="1.51"/><path d="M1818,1289L1310,1437L1956,1344Z" fill="#117033" stroke="#117033" stroke-width="1.51"/><path d="M2054,749L2075,940L2200,801Z" fill="#21823e" stroke="#21823e" stroke-width="1.51"/><path d="M1848,1151L1956,1344L2014,1092Z" fill="#097331" stroke="#097331" stroke-width="1.51"/><path d="M1979,125L1705,357L2061,495Z" fill="#5da664" stroke="#5da664" stroke-width="1.51"/><path d="M1744,741L2054,749L2061,495Z" fill="#37944c" stroke="#37944c" stroke-width="1.51"/><path d="M1847,-261L1977,-62L2092,-316Z" fill="#82b285" stroke="#82b285" stroke-width="1.51"/><path d="M1744,741L1755,977L2054,749Z" fill="#298f48" stroke="#298f48" stroke-width="1.51"/><path d="M2054,749L1755,977L2075,940Z" fill="#208640" stroke="#208640" stroke-width="1.51"/><path d="M1755,977L2014,1092L2075,940Z" fill="#187f3b" stroke="#187f3b" stroke-width="1.51"/><path d="M1705,357L1744,741L2061,495Z" fill="#4aa057" stroke="#4aa057" stroke-width="1.51"/><path d="M1848,1151L1818,1289L1956,1344Z" fill="#087130" stroke="#087130" stroke-width="1.51"/><path d="M1755,977L1848,1151L2014,1092Z" fill="#167e3a" stroke="#167e3a" stroke-width="1.51"/><path d="M1680,51L1699,91L1977,-62Z" fill="#7ab57f" stroke="#7ab57f" stroke-width="1.51"/><path d="M1977,-62L1699,91L1979,125Z" fill="#75b079" stroke="#75b079" stroke-width="1.51"/><path d="M1699,91L1705,357L1979,125Z" fill="#6db073" stroke="#6db073" stroke-width="1.51"/><path d="M1847,-261L1680,51L1977,-62Z" fill="#80b684" stroke="#80b684" stroke-width="1.51"/><path d="M1482,1262L1310,1437L1818,1289Z" fill="#197a3a" stroke="#197a3a" stroke-width="1.51"/><path d="M1057,1348L614,1348L1310,1437Z" fill="#3d8a49" stroke="#3d8a49" stroke-width="1.51"/><path d="M1705,357L1506,426L1744,741Z" fill="#52a960" stroke="#52a960" stroke-width="1.51"/><path d="M1586,-133L1680,51L1847,-261Z" fill="#86bd8b" stroke="#86bd8b" stroke-width="1.51"/><path d="M1755,977L1572,972L1848,1151Z" fill="#1f8741" stroke="#1f8741" stroke-width="1.51"/><path d="M1572,972L1473,1220L1848,1151Z" fill="#1e8640" stroke="#1e8640" stroke-width="1.51"/><path d="M1473,1220L1818,1289L1848,1151Z" fill="#137b38" stroke="#137b38" stroke-width="1.51"/><path d="M1510,-296L1586,-133L1847,-261Z" fill="#8ec293" stroke="#8ec293" stroke-width="1.51"/><path d="M1506,426L1511,732L1744,741Z" fill="#47a65b" stroke="#47a65b" stroke-width="1.51"/><path d="M1473,1220L1482,1262L1818,1289Z" fill="#187e3a" stroke="#187e3a" stroke-width="1.51"/><path d="M1699,91L1540,285L1705,357Z" fill="#6db574" stroke="#6db574" stroke-width="1.51"/><path d="M1511,732L1572,972L1744,741Z" fill="#329a51" stroke="#329a51" stroke-width="1.51"/><path d="M1744,741L1572,972L1755,977Z" fill="#2a9149" stroke="#2a9149" stroke-width="1.51"/><path d="M1680,51L1540,285L1699,91Z" fill="#76b87c" stroke="#76b87c" stroke-width="1.51"/><path d="M1540,285L1506,426L1705,357Z" fill="#64b36e" stroke="#64b36e" stroke-width="1.51"/><path d="M1412,199L1540,285L1680,51Z" fill="#77bc7d" stroke="#77bc7d" stroke-width="1.51"/><path d="M1586,-133L1412,199L1680,51Z" fill="#81bf86" stroke="#81bf86" stroke-width="1.51"/><path d="M1506,426L1338,650L1511,732Z" fill="#50ad61" stroke="#50ad61" stroke-width="1.51"/><path d="M1511,732L1282,876L1572,972Z" fill="#369e53" stroke="#369e53" stroke-width="1.51"/><path d="M1510,-296L1243,-67L1586,-133Z" fill="#93ca98" stroke="#93ca98" stroke-width="1.51"/><path d="M1243,-67L1412,199L1586,-133Z" fill="#89c88f" stroke="#89c88f" stroke-width="1.51"/><path d="M1282,876L1473,1220L1572,972Z" fill="#2c944c" stroke="#2c944c" stroke-width="1.51"/><path d="M38,-311L349,-223L1068,-387Z" fill="#cfecca" stroke="#cfecca" stroke-width="1.51"/><path d="M1282,876L1225,1230L1473,1220Z" fill="#2d944b" stroke="#2d944b" stroke-width="1.51"/><path d="M1395,-341L1243,-67L1510,-296Z" fill="#98ce9d" stroke="#98ce9d" stroke-width="1.51"/><path d="M1412,199L1506,426L1540,285Z" fill="#6eba75" stroke="#6eba75" stroke-width="1.51"/><path d="M1412,199L1246,422L1506,426Z" fill="#6dbc76" stroke="#6dbc76" stroke-width="1.51"/><path d="M1246,422L1338,650L1506,426Z" fill="#5eb76a" stroke="#5eb76a" stroke-width="1.51"/><path d="M1338,650L1282,876L1511,732Z" fill="#41a95c" stroke="#41a95c" stroke-width="1.51"/><path d="M1473,1220L1225,1230L1482,1262Z" fill="#228942" stroke="#228942" stroke-width="1.51"/><path d="M1225,1230L1310,1437L1482,1262Z" fill="#238440" stroke="#238440" stroke-width="1.51"/><path d="M1068,-387L1243,-67L1395,-341Z" fill="#a1d4a4" stroke="#a1d4a4" stroke-width="1.51"/><path d="M1157,264L1246,422L1412,199Z" fill="#78c47e" stroke="#78c47e" stroke-width="1.51"/><path d="M1243,-67L1157,264L1412,199Z" fill="#86ca8a" stroke="#86ca8a" stroke-width="1.51"/><path d="M1078,931L1225,1230L1282,876Z" fill="#3c9f55" stroke="#3c9f55" stroke-width="1.51"/><path d="M1078,931L1011,1089L1225,1230Z" fill="#409e54" stroke="#409e54" stroke-width="1.51"/><path d="M1146,577L1282,876L1338,650Z" fill="#4eb163" stroke="#4eb163" stroke-width="1.51"/><path d="M1246,422L1146,577L1338,650Z" fill="#60b96b" stroke="#60b96b" stroke-width="1.51"/><path d="M349,-223L664,-200L1068,-387Z" fill="#c2e6bd" stroke="#c2e6bd" stroke-width="1.51"/><path d="M997,23L1157,264L1243,-67Z" fill="#93d194" stroke="#93d194" stroke-width="1.51"/><path d="M1146,577L1078,931L1282,876Z" fill="#4bae61" stroke="#4bae61" stroke-width="1.51"/><path d="M1225,1230L1057,1348L1310,1437Z" fill="#2e8644" stroke="#2e8644" stroke-width="1.51"/><path d="M762,1290L614,1348L1057,1348Z" fill="#4b9454" stroke="#4b9454" stroke-width="1.51"/><path d="M1068,-387L997,23L1243,-67Z" fill="#a4d7a4" stroke="#a4d7a4" stroke-width="1.51"/><path d="M1157,264L1061,454L1246,422Z" fill="#77c47b" stroke="#77c47b" stroke-width="1.51"/><path d="M1061,454L1146,577L1246,422Z" fill="#6dbf73" stroke="#6dbf73" stroke-width="1.51"/><path d="M1011,1089L1057,1348L1225,1230Z" fill="#3a944c" stroke="#3a944c" stroke-width="1.51"/><path d="M664,-200L773,-210L1068,-387Z" fill="#bae2b5" stroke="#bae2b5" stroke-width="1.51"/><path d="M773,-210L997,23L1068,-387Z" fill="#b0deac" stroke="#b0deac" stroke-width="1.51"/><path d="M764,618L905,974L1078,931Z" fill="#5bb468" stroke="#5bb468" stroke-width="1.51"/><path d="M764,618L1078,931L1146,577Z" fill="#60b96b" stroke="#60b96b" stroke-width="1.51"/><path d="M997,23L862,223L1157,264Z" fill="#93d291" stroke="#93d291" stroke-width="1.51"/><path d="M873,343L1061,454L1157,264Z" fill="#82ca82" stroke="#82ca82" stroke-width="1.51"/><path d="M862,223L873,343L1157,264Z" fill="#8dd08a" stroke="#8dd08a" stroke-width="1.51"/><path d="M1061,454L764,618L1146,577Z" fill="#71c374" stroke="#71c374" stroke-width="1.51"/><path d="M764,618L702,822L905,974Z" fill="#66ba71" stroke="#66ba71" stroke-width="1.51"/><path d="M1011,1089L922,1080L1057,1348Z" fill="#449b53" stroke="#449b53" stroke-width="1.51"/><path d="M922,1080L762,1290L1057,1348Z" fill="#479a53" stroke="#479a53" stroke-width="1.51"/><path d="M905,974L1011,1089L1078,931Z" fill="#4da75c" stroke="#4da75c" stroke-width="1.51"/><path d="M873,343L764,618L1061,454Z" fill="#7fc97f" stroke="#7fc97f" stroke-width="1.51"/><path d="M-118,1348L-428,1355L97,1389Z" fill="#7ba57e" stroke="#7ba57e" stroke-width="1.51"/><path d="M781,52L862,223L997,23Z" fill="#a1d89c" stroke="#a1d89c" stroke-width="1.51"/><path d="M773,-210L781,52L997,23Z" fill="#addda8" stroke="#addda8" stroke-width="1.51"/><path d="M905,974L922,1080L1011,1089Z" fill="#4ea55b" stroke="#4ea55b" stroke-width="1.51"/><path d="M650,493L764,618L873,343Z" fill="#87cd85" stroke="#87cd85" stroke-width="1.51"/><path d="M905,974L682,1035L922,1080Z" fill="#56a962" stroke="#56a962" stroke-width="1.51"/><path d="M682,1035L762,1290L922,1080Z" fill="#55a45f" stroke="#55a45f" stroke-width="1.51"/><path d="M702,822L682,1035L905,974Z" fill="#60b26b" stroke="#60b26b" stroke-width="1.51"/><path d="M862,223L502,247L873,343Z" fill="#9cd696" stroke="#9cd696" stroke-width="1.51"/><path d="M502,247L650,493L873,343Z" fill="#98d593" stroke="#98d593" stroke-width="1.51"/><path d="M773,-210L664,-200L781,52Z" fill="#b9e2b3" stroke="#b9e2b3" stroke-width="1.51"/><path d="M781,52L502,247L862,223Z" fill="#a5dba0" stroke="#a5dba0" stroke-width="1.51"/><path d="M297,1291L97,1389L614,1348Z" fill="#679e6a" stroke="#679e6a" stroke-width="1.51"/><path d="M682,1035L614,1348L762,1290Z" fill="#57a15f" stroke="#57a15f" stroke-width="1.51"/><path d="M533,594L702,822L764,618Z" fill="#7ac67e" stroke="#7ac67e" stroke-width="1.51"/><path d="M595,-4L502,247L781,52Z" fill="#b1e0aa" stroke="#b1e0aa" stroke-width="1.51"/><path d="M664,-200L595,-4L781,52Z" fill="#b7e2b1" stroke="#b7e2b1" stroke-width="1.51"/><path d="M650,493L533,594L764,618Z" fill="#85cc85" stroke="#85cc85" stroke-width="1.51"/><path d="M338,1190L614,1348L682,1035Z" fill="#62a768" stroke="#62a768" stroke-width="1.51"/><path d="M533,594L452,593L702,822Z" fill="#81c984" stroke="#81c984" stroke-width="1.51"/><path d="M452,593L316,982L702,822Z" fill="#7ac380" stroke="#7ac380" stroke-width="1.51"/><path d="M316,982L682,1035L702,822Z" fill="#6db774" stroke="#6db774" stroke-width="1.51"/><path d="M316,982L338,1190L682,1035Z" fill="#6eb174" stroke="#6eb174" stroke-width="1.51"/><path d="M502,247L369,326L650,493Z" fill="#a2da9c" stroke="#a2da9c" stroke-width="1.51"/><path d="M349,-223L595,-4L664,-200Z" fill="#c6e8bf" stroke="#c6e8bf" stroke-width="1.51"/><path d="M369,326L452,593L533,594Z" fill="#97d493" stroke="#97d493" stroke-width="1.51"/><path d="M396,84L502,247L595,-4Z" fill="#b7e2b0" stroke="#b7e2b0" stroke-width="1.51"/><path d="M369,326L533,594L650,493Z" fill="#97d492" stroke="#97d492" stroke-width="1.51"/><path d="M349,-223L318,-40L595,-4Z" fill="#c8eac2" stroke="#c8eac2" stroke-width="1.51"/><path d="M338,1190L297,1291L614,1348Z" fill="#65a36a" stroke="#65a36a" stroke-width="1.51"/><path d="M318,-40L396,84L595,-4Z" fill="#c1e7ba" stroke="#c1e7ba" stroke-width="1.51"/><path d="M124,569L316,982L452,593Z" fill="#8bcc8f" stroke="#8bcc8f" stroke-width="1.51"/><path d="M396,84L369,326L502,247Z" fill="#b2e0ab" stroke="#b2e0ab" stroke-width="1.51"/><path d="M124,569L63,930L316,982Z" fill="#89c88f" stroke="#89c88f" stroke-width="1.51"/><path d="M208,112L369,326L396,84Z" fill="#bbe4b4" stroke="#bbe4b4" stroke-width="1.51"/><path d="M369,326L132,507L452,593Z" fill="#a1d89c" stroke="#a1d89c" stroke-width="1.51"/><path d="M132,507L124,569L452,593Z" fill="#9ed69b" stroke="#9ed69b" stroke-width="1.51"/><path d="M316,982L205,1135L338,1190Z" fill="#75b37a" stroke="#75b37a" stroke-width="1.51"/><path d="M318,-40L208,112L396,84Z" fill="#c5e9be" stroke="#c5e9be" stroke-width="1.51"/><path d="M208,112L132,507L369,326Z" fill="#b4e1ad" stroke="#b4e1ad" stroke-width="1.51"/><path d="M68,-56L318,-40L349,-223Z" fill="#d3eecc" stroke="#d3eecc" stroke-width="1.51"/><path d="M38,-311L68,-56L349,-223Z" fill="#dcf2d6" stroke="#dcf2d6" stroke-width="1.51"/><path d="M205,1135L297,1291L338,1190Z" fill="#70ac74" stroke="#70ac74" stroke-width="1.51"/><path d="M68,-56L208,112L318,-40Z" fill="#ceecc7" stroke="#ceecc7" stroke-width="1.51"/><path d="M63,930L205,1135L316,982Z" fill="#7dba82" stroke="#7dba82" stroke-width="1.51"/><path d="M205,1135L97,1389L297,1291Z" fill="#71a874" stroke="#71a874" stroke-width="1.51"/><path d="M38,-311L-19,-245L68,-56Z" fill="#e1f4db" stroke="#e1f4db" stroke-width="1.51"/><path d="M-63,622L63,930L124,569Z" fill="#98d19a" stroke="#98d19a" stroke-width="1.51"/><path d="M-16,1195L97,1389L205,1135Z" fill="#77ad7a" stroke="#77ad7a" stroke-width="1.51"/><path d="M63,930L-16,1195L205,1135Z" fill="#7fb783" stroke="#7fb783" stroke-width="1.51"/><path d="M68,-56L-189,276L208,112Z" fill="#ceecc7" stroke="#ceecc7" stroke-width="1.51"/><path d="M7,506L132,507L208,112Z" fill="#b4e1ae" stroke="#b4e1ae" stroke-width="1.51"/><path d="M-189,276L7,506L208,112Z" fill="#bfe5b9" stroke="#bfe5b9" stroke-width="1.51"/><path d="M-195,-58L-189,276L68,-56Z" fill="#d7f0d1" stroke="#d7f0d1" stroke-width="1.51"/><path d="M7,506L124,569L132,507Z" fill="#a7daa3" stroke="#a7daa3" stroke-width="1.51"/><path d="M-125,957L-16,1195L63,930Z" fill="#87be8b" stroke="#87be8b" stroke-width="1.51"/><path d="M7,506L-63,622L124,569Z" fill="#a6d9a3" stroke="#a6d9a3" stroke-width="1.51"/><path d="M-63,622L-125,957L63,930Z" fill="#92cb97" stroke="#92cb97" stroke-width="1.51"/><path d="M-16,1195L-118,1348L97,1389Z" fill="#78a87b" stroke="#78a87b" stroke-width="1.51"/><path d="M-331,-272L-19,-245L38,-311Z" fill="#eaf7e5" stroke="#eaf7e5" stroke-width="1.51"/><path d="M-19,-245L-195,-58L68,-56Z" fill="#e0f3db" stroke="#e0f3db" stroke-width="1.51"/><path d="M-350,560L-63,622L7,506Z" fill="#addcaa" stroke="#addcaa" stroke-width="1.51"/><path d="M-189,276L-350,560L7,506Z" fill="#b8e2b4" stroke="#b8e2b4" stroke-width="1.51"/><path d="M-195,-58L-338,85L-189,276Z" fill="#d7f0d2" stroke="#d7f0d2" stroke-width="1.51"/><path d="M-350,560L-125,957L-63,622Z" fill="#a0d5a3" stroke="#a0d5a3" stroke-width="1.51"/><path d="M-284,-130L-195,-58L-19,-245Z" fill="#e6f5e0" stroke="#e6f5e0" stroke-width="1.51"/><path d="M-321,1096L-118,1348L-16,1195Z" fill="#82b285" stroke="#82b285" stroke-width="1.51"/><path d="M-125,957L-321,1096L-16,1195Z" fill="#89bc8d" stroke="#89bc8d" stroke-width="1.51"/><path d="M-331,-272L-284,-130L-19,-245Z" fill="#eaf7e6" stroke="#eaf7e6" stroke-width="1.51"/><path d="M-350,560L-438,916L-125,957Z" fill="#9cd0a1" stroke="#9cd0a1" stroke-width="1.51"/><path d="M-321,1096L-428,1355L-118,1348Z" fill="#83b086" stroke="#83b086" stroke-width="1.51"/><path d="M-438,916L-321,1096L-125,957Z" fill="#91c397" stroke="#91c397" stroke-width="1.51"/><path d="M-284,-130L-338,85L-195,-58Z" fill="#e1f3dc" stroke="#e1f3dc" stroke-width="1.51"/><path d="M-338,85L-429,508L-189,276Z" fill="#caeac5" stroke="#caeac5" stroke-width="1.51"/><path d="M-429,508L-350,560L-189,276Z" fill="#bde3b8" stroke="#bde3b8" stroke-width="1.51"/><path d="M-331,-272L-338,85L-284,-130Z" fill="#e7f6e2" stroke="#e7f6e2" stroke-width="1.51"/><path d="M-429,508L-438,916L-350,560Z" fill="#abdaac" stroke="#abdaac" stroke-width="1.51"/><path d="M-438,916L-428,1355L-321,1096Z" fill="#8dbb92" stroke="#8dbb92" stroke-width="1.51"/><path d="M-429,508L-338,85L-331,-272Z" fill="#daf1d5" stroke="#daf1d5" stroke-width="1.51"/></svg>