<svg xmlns="http://www.w3.org/2000/svg" width="1920" height="1080"><path d="M614,1348L97,1389L1310,1437Z" fill="#bc4e3b" stroke="#bc4e3b" stroke-width="1.51"/><path d="M1395,-341L1510,-296L1847,-261Z" fill="#f4917d" stroke="#f4917d" stroke-width="1.51"/><path d="M1068,-387L1395,-341L2092,-316Z" fill="#f89681" stroke="#f89681" stroke-width="1.51"/><path d="M1395,-341L1847,-261L2092,-316Z" fill="#ea8c79" stroke="#ea8c79" stroke-width="1.51"/><path d="M2014,1092L1956,1344L2276,1057Z" fill="#a50f16" stroke="#a50f16" stroke-width="1.51"/><path d="M2200,801L2276,1057L2285,626Z" fill="#af1d1c" stroke="#af1d1c" stroke-width="1.51"/><path d="M1977,-62L1979,125L2295,-130Z" fill="#d0735f" stroke="#d0735f" stroke-width="1.51"/><path d="M1956,1344L1310,1437L2309,1449Z" fill="#970a15" stroke="#970a15" stroke-width="1.51"/><path d="M2276,1057L1956,1344L2309,1449Z" fill="#910913" stroke="#910913" stroke-width="1.51"/><path d="M2061,495L2285,626L2341,388Z" fill="#bc3f2f" stroke="#bc3f2f" stroke-width="1.51"/><path d="M2276,1057L2309,1449L2341,388Z" fill="#a01018" stroke="#a01018" stroke-width="1.51"/><path d="M2285,626L2276,1057L2341,388Z" fill="#b12a22" stroke="#b12a22" stroke-width="1.51"/><path d="M2295,-130L1979,125L2355,224Z" fill="#c26754" stroke="#c26754" stroke-width="1.51"/><path d="M2061,495L2341,388L2355,224Z" fill="#bb4b39" stroke="#bb4b39" stroke-width="1.51"/><path d="M1979,125L2061,495L2355,224Z" fill="#c75742" stroke="#c75742" stroke-width="1.51"/><path d="M2291,-209L2295,-130L2355,224Z" fill="#ba6c5d" stroke="#ba6c5d" stroke-width="1.51"/><path d="M2341,388L2309,1449L2355,224Z" fill="#ae2a22" stroke="#ae2a22" stroke-width="1.51"/><path d="M2200,801L2075,940L2276,1057Z" fill="#ae161a" stroke="#ae161a" stroke-width="1.51"/><path d="M2291,-209L2092,-316L2295,-130Z" fill="#c57b6d" stroke="#c57b6d" stroke-width="1.51"/><path d="M2092,-316L1977,-62L2295,-130Z" fill="#cf7d6c" stroke="#cf7d6c" stroke-width="1.51"/><path d="M2054,749L2200,801L2285,626Z" fill="#bc2921" stroke="#bc2921" stroke-width="1.51"/><path d="M2061,495L2054,749L2285,626Z" fill="#c23628" stroke="#c23628" stroke-width="1.51"/><path d="M2075,940L2014,1092L2276,1057Z" fill="#ad1017" stroke="#ad1017" stroke-width="1.51"/><path d="M1818,1289L1310,1437L1956,1344Z" fill="#a70e17" stroke="#a70e17" stroke-width="1.51"/><path d="M2054,749L2075,940L2200,801Z" fill="#bd201d" stroke="#bd201d" stroke-width="1.51"/><path d="M1848,1151L1956,1344L2014,1092Z" fill="#ad1117" stroke="#ad1117" stroke-width="1.51"/><path d="M1979,125L1705,357L2061,495Z" fill="#d75841" stroke="#d75841" stroke-width="1.51"/><path d="M1744,741L2054,749L2061,495Z" fill="#d03627" stroke="#d03627" stroke-width="1.51"/><path d="M1847,-261L1977,-62L2092,-316Z" fill="#dd8471" stroke="#dd8471" stroke-width="1.51"/><path d="M1744,741L1755,977L2054,749Z" fill="#cf2521" stroke="#cf2521" stroke-width="1.51"/><path d="M2054,749L1755,977L2075,940Z" fill="#c41f1d" stroke="#c41f1d" stroke-width="1.51"/><path d="M1755,977L2014,1092L2075,940Z" fill="#bc151a" stroke="#bc151a" stroke-width="1.51"/><path d="M1705,357L1744,741L2061,495Z" fill="#da4632" stroke="#da4632" stroke-width="1.51"/><path d="M1848,1151L1818,1289L1956,1344Z" fill="#aa1116" stroke="#aa1116" stroke-width="1.51"/><path d="M1755,977L1848,1151L2014,1092Z" fill="#ba1419" stroke="#ba1419" stroke-width="1.51"/><path d="M1680,51L1699,91L1977,-62Z" fill="#e3765f" stroke="#e3765f" stroke-width="1.51"/><path d="M1977,-62L1699,91L1979,125Z" fill="#dc725b" stroke="#dc725b" stroke-width="1.51"/><path d="M1699,91L1705,357L1979,125Z" fill="#e0674f" stroke="#e0674f" stroke-width="1.51"/><path d="M1847,-261L1680,51L1977,-62Z" fill="#e37f69" stroke="#e37f69" stroke-width="1.51"/><path d="M1482,1262L1310,1437L1818,1289Z" fill="#b2181a" stroke="#b2181a" stroke-width="1.51"/><path d="M1057,1348L614,1348L1310,1437Z" fill="#bc3a2b" stroke="#bc3a2b" stroke-width="1.51"/><path d="M1705,357L1506,426L1744,741Z" fill="#e44b36" stroke="#e44b36" stroke-width="1.51"/><path d="M1586,-133L1680,51L1847,-261Z" fill="#eb836d" stroke="#eb836d" stroke-width="1.51"/><path d="M1755,977L1572,972L1848,1151Z" fill="#c5171c" stroke="#c5171c" stroke-width="1.51"/><path d="M1572,972L1473,1220L1848,1151Z" fill="#c4181b" stroke="#c4181b" stroke-width="1.51"/><path d="M1473,1220L1818,1289L1848,1151Z" fill="#b71319" stroke="#b71319" stroke-width="1.51"/><path d="M1510,-296L1586,-133L1847,-261Z" fill="#f08c77" stroke="#f08c77" stroke-width="1.51"/><path d="M1506,426L1511,732L1744,741Z" fill="#e5402f" stroke="#e5402f" stroke-width="1.51"/><path d="M1473,1220L1482,1262L1818,1289Z" fill="#ba181a" stroke="#ba181a" stroke-width="1.51"/><path d="M1699,91L1540,285L1705,357Z" fill="#e7654c" stroke="#e7654c" stroke-width="1.51"/><path d="M1511,732L1572,972L1744,741Z" fill="#dd2b24" stroke="#dd2b24" stroke-width="1.51"/><path d="M1744,741L1572,972L1755,977Z" fill="#d22220" stroke="#d22220" stroke-width="1.51"/><path d="M1680,51L1540,285L1699,91Z" fill="#e96f56" stroke="#e96f56" stroke-width="1.51"/><path d="M1540,285L1506,426L1705,357Z" fill="#e95d44" stroke="#e95d44" stroke-width="1.51"/><path d="M1412,199L1540,285L1680,51Z" fill="#ed6f55" stroke="#ed6f55" stroke-width="1.51"/><path d="M1586,-133L1412,199L1680,51Z" fill="#ef7c61" stroke="#ef7c61" stroke-width="1.51"/><path d="M1506,426L1338,650L1511,732Z" fill="#ed4934" stroke="#ed4934" stroke-width="1.51"/><path d="M1511,732L1282,876L1572,972Z" fill="#e12f26" stroke="#e12f26" stroke-width="1.51"/><path d="M1510,-296L1243,-67L1586,-133Z" fill="#f99078" stroke="#f99078" stroke-width="1.51"/><path d="M1243,-67L1412,199L1586,-133Z" fill="#f78469" stroke="#f78469" stroke-width="1.51"/><path d="M1282,876L1473,1220L1572,972Z" fill="#d52421" stroke="#d52421" stroke-width="1.51"/><path d="M38,-311L349,-223L1068,-387Z" fill="#ffc7b2" stroke="#ffc7b2" stroke-width="1.51"/><path d="M1282,876L1225,1230L1473,1220Z" fill="#d42922" stroke="#d42922" stroke-width="1.51"/><path d="M1395,-341L1243,-67L1510,-296Z" fill="#fd967e" stroke="#fd967e" stroke-width="1.51"/><path d="M1412,199L1506,426L1540,285Z" fill="#ee654b" stroke="#ee654b" stroke-width="1.51"/><path d="M1412,199L1246,422L1506,426Z" fill="#f36449" stroke="#f36449" stroke-width="1.51"/><path d="M1246,422L1338,650L1506,426Z" fill="#f3573d" stroke="#f3573d" stroke-width="1.51"/><path d="M1338,650L1282,876L1511,732Z" fill="#ec3b2c" stroke="#ec3b2c" stroke-width="1.51"/><path d="M1473,1220L1225,1230L1482,1262Z" fill="#c6231e" stroke="#c6231e" stroke-width="1.51"/><path d="M1225,1230L1310,1437L1482,1262Z" fill="#bf231f" stroke="#bf231f" stroke-width="1.51"/><path d="M1068,-387L1243,-67L1395,-341Z" fill="#ff9e85" stroke="#ff9e85" stroke-width="1.51"/><path d="M1157,264L1246,422L1412,199Z" fill="#f86e51" stroke="#f86e51" stroke-width="1.51"/><path d="M1243,-67L1157,264L1412,199Z" fill="#fa7e61" stroke="#fa7e61" stroke-width="1.51"/><path d="M1078,931L1225,1230L1282,876Z" fill="#df3629" stroke="#df3629" stroke-width="1.51"/><path d="M1078,931L1011,1089L1225,1230Z" fill="#da3b2c" stroke="#da3b2c" stroke-width="1.51"/><path d="M1146,577L1282,876L1338,650Z" fill="#f24833" stroke="#f24833" stroke-width="1.51"/><path d="M1246,422L1146,577L1338,650Z" fill="#f7583d" stroke="#f7583d" stroke-width="1.51"/><path d="M349,-223L664,-200L1068,-387Z" fill="#ffbaa2" stroke="#ffbaa2" stroke-width="1.51"/><path d="M997,23L1157,264L1243,-67Z" fill="#fc8b6c" stroke="#fc8b6c" stroke-width="1.51"/><path d="M1146,577L1078,931L1282,876Z" fill="#f04531" stroke="#f04531" stroke-width="1.51"/><path d="M1225,1230L1057,1348L1310,1437Z" fill="#be2d23" stroke="#be2d23" stroke-width="1.51"/><path d="M762,1290L614,1348L1057,1348Z" fill="#c44835" stroke="#c44835" stroke-width="1.51"/><path d="M1068,-387L997,23L1243,-67Z" fill="#ff9e83" stroke="#ff9e83" stroke-width="1.51"/><path d="M1157,264L1061,454L1246,422Z" fill="#f96e4f" stroke="#f96e4f" stroke-width="1.51"/><path d="M1061,454L1146,577L1246,422Z" fill="#f96446" stroke="#f96446" stroke-width="1.51"/><path d="M1011,1089L1057,1348L1225,1230Z" fill="#d03829" stroke="#d03829" stroke-width="1.51"/><path d="M664,-200L773,-210L1068,-387Z" fill="#ffb29a" stroke="#ffb29a" stroke-width="1.51"/><path d="M773,-210L997,23L1068,-387Z" fill="#ffa98f" stroke="#ffa98f" stroke-width="1.51"/><path d="M764,618L905,974L1078,931Z" fill="#f0543b" stroke="#f0543b" stroke-width="1.51"/><path d="M764,618L1078,931L1146,577Z" fill="#f7593d" stroke="#f7593d" stroke-width="1.51"/><path d="M997,23L862,223L1157,264Z" fill="#fd8969" stroke="#fd8969" stroke-width="1.51"/><path d="M873,343L1061,454L1157,264Z" fill="#fb7757" stroke="#fb7757" stroke-width="1.51"/><path d="M862,223L873,343L1157,264Z" fill="#fc8161" stroke="#fc8161" stroke-width="1.51"/><path d="M1061,454L764,618L1146,577Z" fill="#fb6748" stroke="#fb6748" stroke-width="1.51"/><path d="M764,618L702,822L905,974Z" fill="#f45e43" stroke="#f45e43" stroke-width="1.51"/><path d="M1011,1089L922,1080L1057,1348Z" fill="#d5412e" stroke="#d5412e" stroke-width="1.51"/><path d="M922,1080L762,1290L1057,1348Z" fill="#d04531" stroke="#d04531" stroke-width="1.51"/><path d="M905,974L1011,1089L1078,931Z" fill="#e44532" stroke="#e44532" stroke-width="1.51"/><path d="M873,343L764,618L1061,454Z" fill="#fc7453" stroke="#fc7453" stroke-width="1.51"/><path d="M-118,1348L-428,1355L97,1389Z" fill="#c87c6d" stroke="#c87c6d" stroke-width="1.51"/><path d="M781,52L862,223L997,23Z" fill="#fe9676" stroke="#fe9676" stroke-width="1.51"/><path d="M773,-210L781,52L997,23Z" fill="#ffa386" stroke="#ffa386" stroke-width="1.51"/><path d="M905,974L922,1080L1011,1089Z" fill="#e04833" stroke="#e04833" stroke-width="1.51"/><path d="M650,493L764,618L873,343Z" fill="#fc7b59" stroke="#fc7b59" stroke-width="1.51"/><path d="M905,974L682,1035L922,1080Z" fill="#e34f39" stroke="#e34f39" stroke-width="1.51"/><path d="M682,1035L762,1290L922,1080Z" fill="#da503a" stroke="#da503a" stroke-width="1.51"/><path d="M702,822L682,1035L905,974Z" fill="#e95840" stroke="#e95840" stroke-width="1.51"/><path d="M862,223L502,247L873,343Z" fill="#fc8e6d" stroke="#fc8e6d" stroke-width="1.51"/><path d="M502,247L650,493L873,343Z" fill="#fc8a69" stroke="#fc8a69" stroke-width="1.51"/><path d="M773,-210L664,-200L781,52Z" fill="#ffaf94" stroke="#ffaf94" stroke-width="1.51"/><path d="M781,52L502,247L862,223Z" fill="#fd9879" stroke="#fd9879" stroke-width="1.51"/><path d="M297,1291L97,1389L614,1348Z" fill="#c66450" stroke="#c66450" stroke-width="1.51"/><path d="M682,1035L614,1348L762,1290Z" fill="#d3543e" stroke="#d3543e" stroke-width="1.51"/><path d="M533,594L702,822L764,618Z" fill="#f97051" stroke="#f97051" stroke-width="1.51"/><path d="M595,-4L502,247L781,52Z" fill="#fda385" stroke="#fda385" stroke-width="1.51"/><path d="M664,-200L595,-4L781,52Z" fill="#ffac91" stroke="#ffac91" stroke-width="1.51"/><path d="M650,493L533,594L764,618Z" fill="#fc7a59" stroke="#fc7a59" stroke-width="1.51"/><path d="M338,1190L614,1348L682,1035Z" fill="#d75e46" stroke="#d75e46" stroke-width="1.51"/><path d="M533,594L452,593L702,822Z" fill="#fa7758" stroke="#fa7758" stroke-width="1.51"/><path d="M452,593L316,982L702,822Z" fill="#f67255" stroke="#f67255" stroke-width="1.51"/><path d="M316,982L682,1035L702,822Z" fill="#eb654b" stroke="#eb654b" stroke-width="1.51"/><path d="M316,982L338,1190L682,1035Z" fill="#e2674f" stroke="#e2674f" stroke-width="1.51"/><path d="M502,247L369,326L650,493Z" fill="#fd9474" stroke="#fd9474" stroke-width="1.51"/><path d="M349,-223L595,-4L664,-200Z" fill="#ffbba3" stroke="#ffbba3" stroke-width="1.51"/><path d="M369,326L452,593L533,594Z" fill="#fd8b6b" stroke="#fd8b6b" stroke-width="1.51"/><path d="M396,84L502,247L595,-4Z" fill="#fdaa8c" stroke="#fdaa8c" stroke-width="1.51"/><path d="M369,326L533,594L650,493Z" fill="#fd8a6a" stroke="#fd8a6a" stroke-width="1.51"/><path d="M349,-223L318,-40L595,-4Z" fill="#febea6" stroke="#febea6" stroke-width="1.51"/><path d="M338,1190L297,1291L614,1348Z" fill="#cf624c" stroke="#cf624c" stroke-width="1.51"/><path d="M318,-40L396,84L595,-4Z" fill="#fdb59b" stroke="#fdb59b" stroke-width="1.51"/><path d="M124,569L316,982L452,593Z" fill="#fb8466" stroke="#fb8466" stroke-width="1.51"/><path d="M396,84L369,326L502,247Z" fill="#fda586" stroke="#fda586" stroke-width="1.51"/><path d="M124,569L63,930L316,982Z" fill="#f88469" stroke="#f88469" stroke-width="1.51"/><path d="M208,112L369,326L396,84Z" fill="#fdae92" stroke="#fdae92" stroke-width="1.51"/><path d="M369,326L132,507L452,593Z" fill="#fe9677" stroke="#fe9677" stroke-width="1.51"/><path d="M132,507L124,569L452,593Z" fill="#fe9475" stroke="#fe9475" stroke-width="1.51"/><path d="M316,982L205,1135L338,1190Z" fill="#e07059" stroke="#e07059" stroke-width="1.51"/><path d="M318,-40L208,112L396,84Z" fill="#fcba9f" stroke="#fcba9f" stroke-width="1.51"/><path d="M208,112L132,507L369,326Z" fill="#fda78a" stroke="#fda78a" stroke-width="1.51"/><path d="M68,-56L318,-40L349,-223Z" fill="#fdc9b4" stroke="#fdc9b4" stroke-width="1.51"/><path d="M38,-311L68,-56L349,-223Z" fill="#fed4c2" stroke="#fed4c2" stroke-width="1.51"/><path d="M205,1135L297,1291L338,1190Z" fill="#d76e57" stroke="#d76e57" stroke-width="1.51"/><path d="M68,-56L208,112L318,-40Z" fill="#fdc3ab" stroke="#fdc3ab" stroke-width="1.51"/><path d="M63,930L205,1135L316,982Z" fill="#e97860" stroke="#e97860" stroke-width="1.51"/><path d="M205,1135L97,1389L297,1291Z" fill="#d2705a" stroke="#d2705a" stroke-width="1.51"/><path d="M38,-311L-19,-245L68,-56Z" fill="#fedbcb" stroke="#fedbcb" stroke-width="1.51"/><path d="M-63,622L63,930L124,569Z" fill="#ff9377" stroke="#ff9377" stroke-width="1.51"/><path d="M-16,1195L97,1389L205,1135Z" fill="#d87761" stroke="#d87761" stroke-width="1.51"/><path d="M63,930L-16,1195L205,1135Z" fill="#e57c66" stroke="#e57c66" stroke-width="1.51"/><path d="M68,-56L-189,276L208,112Z" fill="#fdc4ac" stroke="#fdc4ac" stroke-width="1.51"/><path d="M7,506L132,507L208,112Z" fill="#ffa98c" stroke="#ffa98c" stroke-width="1.51"/><path d="M-189,276L7,506L208,112Z" fill="#ffb49a" stroke="#ffb49a" stroke-width="1.51"/><path d="M-195,-58L-189,276L68,-56Z" fill="#fecfbb" stroke="#fecfbb" stroke-width="1.51"/><path d="M7,506L124,569L132,507Z" fill="#ff9e81" stroke="#ff9e81" stroke-width="1.51"/><path d="M-125,957L-16,1195L63,930Z" fill="#eb846e" stroke="#eb846e" stroke-width="1.51"/><path d="M7,506L-63,622L124,569Z" fill="#ff9e82" stroke="#ff9e82" stroke-width="1.51"/><path d="M-63,622L-125,957L63,930Z" fill="#fa8f76" stroke="#fa8f76" stroke-width="1.51"/><path d="M-16,1195L-118,1348L97,1389Z" fill="#ce7966" stroke="#ce7966" stroke-width="1.51"/><path d="M-331,-272L-19,-245L38,-311Z" fill="#ffe5d9" stroke="#ffe5d9" stroke-width="1.51"/><path d="M-19,-245L-195,-58L68,-56Z" fill="#fedac9" stroke="#fedac9" stroke-width="1.51"/><path d="M-350,560L-63,622L7,506Z" fill="#ffa68c" stroke="#ffa68c" stroke-width="1.51"/><path d="M-189,276L-350,560L7,506Z" fill="#ffb198" stroke="#ffb198" stroke-width="1.51"/><path d="M-195,-58L-338,85L-189,276Z" fill="#ffcfbc" stroke="#ffcfbc" stroke-width="1.51"/><path d="M-350,560L-125,957L-63,622Z" fill="#ff9c84" stroke="#ff9c84" stroke-width="1.51"/><path d="M-284,-130L-195,-58L-19,-245Z" fill="#fee0d3" stroke="#fee0d3" stroke-width="1.51"/><path d="M-321,1096L-118,1348L-16,1195Z" fill="#dd8371" stroke="#dd8371" stroke-width="1.51"/><path d="M-125,957L-321,1096L-16,1195Z" fill="#e88773" stroke="#e88773" stroke-width="1.51"/><path d="M-331,-272L-284,-130L-19,-245Z" fill="#ffe6da" stroke="#ffe6da" stroke-width="1.51"/><path d="M-350,560L-438,916L-125,957Z" fill="#ff9983" stroke="#ff9983" stroke-width="1.51"/><path d="M-321,1096L-428,1355L-118,1348Z" fill="#d88574" stroke="#d88574" stroke-width="1.51"/><path d="M-438,916L-321,1096L-125,957Z" fill="#f28f7b" stroke="#f28f7b" stroke-width="1.51"/><path d="M-284,-130L-338,85L-195,-58Z" fill="#ffdacc" stroke="#ffdacc" stroke-width="1.51"/><path d="M-338,85L-429,508L-189,276Z" fill="#ffc1ac" stroke="#ffc1ac" stroke-width="1.51"/><path d="M-429,508L-350,560L-189,276Z" fill="#ffb59e" stroke="#ffb59e" stroke-width="1.51"/><path d="M-331,-272L-338,85L-284,-130Z" fill="#ffe2d5" stroke="#ffe2d5" stroke-width="1.51"/><path d="M-429,508L-438,916L-350,560Z" fill="#ffa790" stroke="#ffa790" stroke-width="1.51"/><path d="M-438,916L-428,1355L-321,1096Z" fill="#e78e7c" stroke="#e78e7c" stroke-width="1.51"/><path d="M-429,508L-338,85L-331,-272Z" fill="#ffd2c0" stroke="#ffd2c0" stroke-width="1.51"/></svg>