<svg xmlns="http://www.w3.org/2000/svg" width="1920" height="1080"><path d="M614,1348L97,1389L1310,1437Z" fill="#aa4f90" stroke="#aa4f90" stroke-width="1.51"/><path d="M1395,-341L1510,-296L1847,-261Z" fill="#e08eb6" stroke="#e08eb6" stroke-width="1.51"/><path d="M1068,-387L1395,-341L2092,-316Z" fill="#e593ba" stroke="#e593ba" stroke-width="1.51"/><path d="M1395,-341L1847,-261L2092,-316Z" fill="#d188b2" stroke="#d188b2" stroke-width="1.51"/><path d="M2014,1092L1956,1344L2276,1057Z" fill="#7f0077" stroke="#7f0077" stroke-width="1.51"/><path d="M2200,801L2276,1057L2285,626Z" fill="#961480" stroke="#961480" stroke-width="1.51"/><path d="M1977,-62L1979,125L2295,-130Z" fill="#b871a0" stroke="#b871a0" stroke-width="1.51"/><path d="M1956,1344L1310,1437L2309,1449Z" fill="#750074" stroke="#750074" stroke-width="1.51"/><path d="M2276,1057L1956,1344L2309,1449Z" fill="#6b0073" stroke="#6b0073" stroke-width="1.51"/><path d="M2061,495L2285,626L2341,388Z" fill="#aa3c8a" stroke="#aa3c8a" stroke-width="1.51"/><path d="M2276,1057L2309,1449L2341,388Z" fill="#850478" stroke="#850478" stroke-width="1.51"/><path d="M2285,626L2276,1057L2341,388Z" fill="#9c2484" stroke="#9c2484" stroke-width="1.51"/><path d="M2295,-130L1979,125L2355,224Z" fill="#ae6998" stroke="#ae6998" stroke-width="1.51"/><path d="M2061,495L2341,388L2355,224Z" fill="#a94d8f" stroke="#a94d8f" stroke-width="1.51"/><path d="M1979,125L2061,495L2355,224Z" fill="#b25995" stroke="#b25995" stroke-width="1.51"/><path d="M2291,-209L2295,-130L2355,224Z" fill="#a76c9d" stroke="#a76c9d" stroke-width="1.51"/><path d="M2341,388L2309,1449L2355,224Z" fill="#9a2483" stroke="#9a2483" stroke-width="1.51"/><path d="M2200,801L2075,940L2276,1057Z" fill="#90097c" stroke="#90097c" stroke-width="1.51"/><path d="M2291,-209L2092,-316L2295,-130Z" fill="#ae78a8" stroke="#ae78a8" stroke-width="1.51"/><path d="M2092,-316L1977,-62L2295,-130Z" fill="#b678a8" stroke="#b678a8" stroke-width="1.51"/><path d="M2054,749L2200,801L2285,626Z" fill="#a32285" stroke="#a32285" stroke-width="1.51"/><path d="M2061,495L2054,749L2285,626Z" fill="#ab2f89" stroke="#ab2f89" stroke-width="1.51"/><path d="M2075,940L2014,1092L2276,1057Z" fill="#8b0078" stroke="#8b0078" stroke-width="1.51"/><path d="M1818,1289L1310,1437L1956,1344Z" fill="#870077" stroke="#870077" stroke-width="1.51"/><path d="M2054,749L2075,940L2200,801Z" fill="#9f1583" stroke="#9f1583" stroke-width="1.51"/><path d="M1848,1151L1956,1344L2014,1092Z" fill="#850178" stroke="#850178" stroke-width="1.51"/><path d="M1979,125L1705,357L2061,495Z" fill="#c15996" stroke="#c15996" stroke-width="1.51"/><path d="M1744,741L2054,749L2061,495Z" fill="#b62d8a" stroke="#b62d8a" stroke-width="1.51"/><path d="M1847,-261L1977,-62L2092,-316Z" fill="#c27fac" stroke="#c27fac" stroke-width="1.51"/><path d="M1744,741L1755,977L2054,749Z" fill="#b31986" stroke="#b31986" stroke-width="1.51"/><path d="M2054,749L1755,977L2075,940Z" fill="#a41282" stroke="#a41282" stroke-width="1.51"/><path d="M1755,977L2014,1092L2075,940Z" fill="#9a027c" stroke="#9a027c" stroke-width="1.51"/><path d="M1705,357L1744,741L2061,495Z" fill="#c63e8f" stroke="#c63e8f" stroke-width="1.51"/><path d="M1848,1151L1818,1289L1956,1344Z" fill="#830178" stroke="#830178" stroke-width="1.51"/><path d="M1755,977L1848,1151L2014,1092Z" fill="#98017b" stroke="#98017b" stroke-width="1.51"/><path d="M1680,51L1699,91L1977,-62Z" fill="#ce75a1" stroke="#ce75a1" stroke-width="1.51"/><path d="M1977,-62L1699,91L1979,125Z" fill="#c6719e" stroke="#c6719e" stroke-width="1.51"/><path d="M1699,91L1705,357L1979,125Z" fill="#cc689b" stroke="#cc689b" stroke-width="1.51"/><path d="M1847,-261L1680,51L1977,-62Z" fill="#cb7ba7" stroke="#cb7ba7" stroke-width="1.51"/><path d="M1482,1262L1310,1437L1818,1289Z" fill="#940a7d" stroke="#940a7d" stroke-width="1.51"/><path d="M1057,1348L614,1348L1310,1437Z" fill="#a93588" stroke="#a93588" stroke-width="1.51"/><path d="M1705,357L1506,426L1744,741Z" fill="#d44592" stroke="#d44592" stroke-width="1.51"/><path d="M1586,-133L1680,51L1847,-261Z" fill="#d67fa9" stroke="#d67fa9" stroke-width="1.51"/><path d="M1755,977L1572,972L1848,1151Z" fill="#a7017d" stroke="#a7017d" stroke-width="1.51"/><path d="M1572,972L1473,1220L1848,1151Z" fill="#a4047e" stroke="#a4047e" stroke-width="1.51"/><path d="M1473,1220L1818,1289L1848,1151Z" fill="#94017b" stroke="#94017b" stroke-width="1.51"/><path d="M1510,-296L1586,-133L1847,-261Z" fill="#db87b0" stroke="#db87b0" stroke-width="1.51"/><path d="M1506,426L1511,732L1744,741Z" fill="#d23990" stroke="#d23990" stroke-width="1.51"/><path d="M1473,1220L1482,1262L1818,1289Z" fill="#98077d" stroke="#98077d" stroke-width="1.51"/><path d="M1699,91L1540,285L1705,357Z" fill="#d7679b" stroke="#d7679b" stroke-width="1.51"/><path d="M1511,732L1572,972L1744,741Z" fill="#c5208a" stroke="#c5208a" stroke-width="1.51"/><path d="M1744,741L1572,972L1755,977Z" fill="#b71384" stroke="#b71384" stroke-width="1.51"/><path d="M1680,51L1540,285L1699,91Z" fill="#d8709e" stroke="#d8709e" stroke-width="1.51"/><path d="M1540,285L1506,426L1705,357Z" fill="#da5e9b" stroke="#da5e9b" stroke-width="1.51"/><path d="M1412,199L1540,285L1680,51Z" fill="#de71a1" stroke="#de71a1" stroke-width="1.51"/><path d="M1586,-133L1412,199L1680,51Z" fill="#df7ca4" stroke="#df7ca4" stroke-width="1.51"/><path d="M1506,426L1338,650L1511,732Z" fill="#dd4396" stroke="#dd4396" stroke-width="1.51"/><path d="M1511,732L1282,876L1572,972Z" fill="#cb258d" stroke="#cb258d" stroke-width="1.51"/><path d="M1510,-296L1243,-67L1586,-133Z" fill="#e88db5" stroke="#e88db5" stroke-width="1.51"/><path d="M1243,-67L1412,199L1586,-133Z" fill="#e985ac" stroke="#e985ac" stroke-width="1.51"/><path d="M1282,876L1473,1220L1572,972Z" fill="#bb1786" stroke="#bb1786" stroke-width="1.51"/><path d="M38,-311L349,-223L1068,-387Z" fill="#fecdd1" stroke="#fecdd1" stroke-width="1.51"/><path d="M1282,876L1225,1230L1473,1220Z" fill="#b91e88" stroke="#b91e88" stroke-width="1.51"/><path d="M1395,-341L1243,-67L1510,-296Z" fill="#ee94ba" stroke="#ee94ba" stroke-width="1.51"/><path d="M1412,199L1506,426L1540,285Z" fill="#e168a0" stroke="#e168a0" stroke-width="1.51"/><path d="M1412,199L1246,422L1506,426Z" fill="#e767a2" stroke="#e767a2" stroke-width="1.51"/><path d="M1246,422L1338,650L1506,426Z" fill="#e7549c" stroke="#e7549c" stroke-width="1.51"/><path d="M1338,650L1282,876L1511,732Z" fill="#da3495" stroke="#da3495" stroke-width="1.51"/><path d="M1473,1220L1225,1230L1482,1262Z" fill="#a71784" stroke="#a71784" stroke-width="1.51"/><path d="M1225,1230L1310,1437L1482,1262Z" fill="#a31984" stroke="#a31984" stroke-width="1.51"/><path d="M1068,-387L1243,-67L1395,-341Z" fill="#f59dbf" stroke="#f59dbf" stroke-width="1.51"/><path d="M1157,264L1246,422L1412,199Z" fill="#ee73a7" stroke="#ee73a7" stroke-width="1.51"/><path d="M1243,-67L1157,264L1412,199Z" fill="#f082ab" stroke="#f082ab" stroke-width="1.51"/><path d="M1078,931L1225,1230L1282,876Z" fill="#c92d8c" stroke="#c92d8c" stroke-width="1.51"/><path d="M1078,931L1011,1089L1225,1230Z" fill="#c5338c" stroke="#c5338c" stroke-width="1.51"/><path d="M1146,577L1282,876L1338,650Z" fill="#e3439a" stroke="#e3439a" stroke-width="1.51"/><path d="M1246,422L1146,577L1338,650Z" fill="#ec549d" stroke="#ec549d" stroke-width="1.51"/><path d="M349,-223L664,-200L1068,-387Z" fill="#febfcb" stroke="#febfcb" stroke-width="1.51"/><path d="M997,23L1157,264L1243,-67Z" fill="#f58fae" stroke="#f58fae" stroke-width="1.51"/><path d="M1146,577L1078,931L1282,876Z" fill="#e13f98" stroke="#e13f98" stroke-width="1.51"/><path d="M1225,1230L1057,1348L1310,1437Z" fill="#a62586" stroke="#a62586" stroke-width="1.51"/><path d="M762,1290L614,1348L1057,1348Z" fill="#b0468e" stroke="#b0468e" stroke-width="1.51"/><path d="M1068,-387L997,23L1243,-67Z" fill="#f89ebb" stroke="#f89ebb" stroke-width="1.51"/><path d="M1157,264L1061,454L1246,422Z" fill="#f270a6" stroke="#f270a6" stroke-width="1.51"/><path d="M1061,454L1146,577L1246,422Z" fill="#f163a1" stroke="#f163a1" stroke-width="1.51"/><path d="M1011,1089L1057,1348L1225,1230Z" fill="#b5318b" stroke="#b5318b" stroke-width="1.51"/><path d="M664,-200L773,-210L1068,-387Z" fill="#feb5c7" stroke="#feb5c7" stroke-width="1.51"/><path d="M773,-210L997,23L1068,-387Z" fill="#fdaac0" stroke="#fdaac0" stroke-width="1.51"/><path d="M764,618L905,974L1078,931Z" fill="#e4509a" stroke="#e4509a" stroke-width="1.51"/><path d="M764,618L1078,931L1146,577Z" fill="#ec559d" stroke="#ec559d" stroke-width="1.51"/><path d="M997,23L862,223L1157,264Z" fill="#f98ead" stroke="#f98ead" stroke-width="1.51"/><path d="M873,343L1061,454L1157,264Z" fill="#f67ba8" stroke="#f67ba8" stroke-width="1.51"/><path d="M862,223L873,343L1157,264Z" fill="#f987ab" stroke="#f987ab" stroke-width="1.51"/><path d="M1061,454L764,618L1146,577Z" fill="#f665a0" stroke="#f665a0" stroke-width="1.51"/><path d="M764,618L702,822L905,974Z" fill="#e85ea0" stroke="#e85ea0" stroke-width="1.51"/><path d="M1011,1089L922,1080L1057,1348Z" fill="#be398d" stroke="#be398d" stroke-width="1.51"/><path d="M922,1080L762,1290L1057,1348Z" fill="#b93f8e" stroke="#b93f8e" stroke-width="1.51"/><path d="M905,974L1011,1089L1078,931Z" fill="#d23e8f" stroke="#d23e8f" stroke-width="1.51"/><path d="M873,343L764,618L1061,454Z" fill="#f876a5" stroke="#f876a5" stroke-width="1.51"/><path d="M-118,1348L-428,1355L97,1389Z" fill="#b078a8" stroke="#b078a8" stroke-width="1.51"/><path d="M781,52L862,223L997,23Z" fill="#fb9cb2" stroke="#fb9cb2" stroke-width="1.51"/><path d="M773,-210L781,52L997,23Z" fill="#fca8ba" stroke="#fca8ba" stroke-width="1.51"/><path d="M905,974L922,1080L1011,1089Z" fill="#ce4090" stroke="#ce4090" stroke-width="1.51"/><path d="M650,493L764,618L873,343Z" fill="#f97fa9" stroke="#f97fa9" stroke-width="1.51"/><path d="M905,974L682,1035L922,1080Z" fill="#d14c92" stroke="#d14c92" stroke-width="1.51"/><path d="M682,1035L762,1290L922,1080Z" fill="#c54d93" stroke="#c54d93" stroke-width="1.51"/><path d="M702,822L682,1035L905,974Z" fill="#da5799" stroke="#da5799" stroke-width="1.51"/><path d="M862,223L502,247L873,343Z" fill="#fa98b2" stroke="#fa98b2" stroke-width="1.51"/><path d="M502,247L650,493L873,343Z" fill="#fa94b0" stroke="#fa94b0" stroke-width="1.51"/><path d="M773,-210L664,-200L781,52Z" fill="#fcb4c2" stroke="#fcb4c2" stroke-width="1.51"/><path d="M781,52L502,247L862,223Z" fill="#fba2b5" stroke="#fba2b5" stroke-width="1.51"/><path d="M297,1291L97,1389L614,1348Z" fill="#b16598" stroke="#b16598" stroke-width="1.51"/><path d="M682,1035L614,1348L762,1290Z" fill="#bc5495" stroke="#bc5495" stroke-width="1.51"/><path d="M533,594L702,822L764,618Z" fill="#f274a7" stroke="#f274a7" stroke-width="1.51"/><path d="M595,-4L502,247L781,52Z" fill="#fbafba" stroke="#fbafba" stroke-width="1.51"/><path d="M664,-200L595,-4L781,52Z" fill="#fcb4c0" stroke="#fcb4c0" stroke-width="1.51"/><path d="M650,493L533,594L764,618Z" fill="#f77fa9" stroke="#f77fa9" stroke-width="1.51"/><path d="M338,1190L614,1348L682,1035Z" fill="#c15f98" stroke="#c15f98" stroke-width="1.51"/><path d="M533,594L452,593L702,822Z" fill="#f27ca9" stroke="#f27ca9" stroke-width="1.51"/><path d="M452,593L316,982L702,822Z" fill="#eb75a7" stroke="#eb75a7" stroke-width="1.51"/><path d="M316,982L682,1035L702,822Z" fill="#dc679e" stroke="#dc679e" stroke-width="1.51"/><path d="M316,982L338,1190L682,1035Z" fill="#cf699b" stroke="#cf699b" stroke-width="1.51"/><path d="M502,247L369,326L650,493Z" fill="#fb9fb5" stroke="#fb9fb5" stroke-width="1.51"/><path d="M349,-223L595,-4L664,-200Z" fill="#fdc2c8" stroke="#fdc2c8" stroke-width="1.51"/><path d="M369,326L452,593L533,594Z" fill="#fa92af" stroke="#fa92af" stroke-width="1.51"/><path d="M396,84L502,247L595,-4Z" fill="#fcb5bb" stroke="#fcb5bb" stroke-width="1.51"/><path d="M369,326L533,594L650,493Z" fill="#fa92af" stroke="#fa92af" stroke-width="1.51"/><path d="M349,-223L318,-40L595,-4Z" fill="#fcc5c7" stroke="#fcc5c7" stroke-width="1.51"/><path d="M338,1190L297,1291L614,1348Z" fill="#b86398" stroke="#b86398" stroke-width="1.51"/><path d="M318,-40L396,84L595,-4Z" fill="#fcbfc0" stroke="#fcbfc0" stroke-width="1.51"/><path d="M124,569L316,982L452,593Z" fill="#f288ad" stroke="#f288ad" stroke-width="1.51"/><path d="M396,84L369,326L502,247Z" fill="#fbb0ba" stroke="#fbb0ba" stroke-width="1.51"/><path d="M124,569L63,930L316,982Z" fill="#ea85ac" stroke="#ea85ac" stroke-width="1.51"/><path d="M208,112L369,326L396,84Z" fill="#fcb9bd" stroke="#fcb9bd" stroke-width="1.51"/><path d="M369,326L132,507L452,593Z" fill="#fb9cb2" stroke="#fb9cb2" stroke-width="1.51"/><path d="M132,507L124,569L452,593Z" fill="#fa98b1" stroke="#fa98b1" stroke-width="1.51"/><path d="M316,982L205,1135L338,1190Z" fill="#cd719d" stroke="#cd719d" stroke-width="1.51"/><path d="M318,-40L208,112L396,84Z" fill="#fcc3c0" stroke="#fcc3c0" stroke-width="1.51"/><path d="M208,112L132,507L369,326Z" fill="#fbb2bb" stroke="#fbb2bb" stroke-width="1.51"/><path d="M68,-56L318,-40L349,-223Z" fill="#fdd0cb" stroke="#fdd0cb" stroke-width="1.51"/><path d="M38,-311L68,-56L349,-223Z" fill="#fdd8d4" stroke="#fdd8d4" stroke-width="1.51"/><path d="M205,1135L297,1291L338,1190Z" fill="#c06d9c" stroke="#c06d9c" stroke-width="1.51"/><path d="M68,-56L208,112L318,-40Z" fill="#fdcac6" stroke="#fdcac6" stroke-width="1.51"/><path d="M63,930L205,1135L316,982Z" fill="#d778a1" stroke="#d778a1" stroke-width="1.51"/><path d="M205,1135L97,1389L297,1291Z" fill="#b96e9e" stroke="#b96e9e" stroke-width="1.51"/><path d="M38,-311L-19,-245L68,-56Z" fill="#fdddda" stroke="#fdddda" stroke-width="1.51"/><path d="M-63,622L63,930L124,569Z" fill="#f493b5" stroke="#f493b5" stroke-width="1.51"/><path d="M-16,1195L97,1389L205,1135Z" fill="#bd73a2" stroke="#bd73a2" stroke-width="1.51"/><path d="M63,930L-16,1195L205,1135Z" fill="#cf7aa5" stroke="#cf7aa5" stroke-width="1.51"/><path d="M68,-56L-189,276L208,112Z" fill="#fdcbc8" stroke="#fdcbc8" stroke-width="1.51"/><path d="M7,506L132,507L208,112Z" fill="#fcb1bd" stroke="#fcb1bd" stroke-width="1.51"/><path d="M-189,276L7,506L208,112Z" fill="#fcbcc4" stroke="#fcbcc4" stroke-width="1.51"/><path d="M-195,-58L-189,276L68,-56Z" fill="#fdd4cf" stroke="#fdd4cf" stroke-width="1.51"/><path d="M7,506L124,569L132,507Z" fill="#fca1b8" stroke="#fca1b8" stroke-width="1.51"/><path d="M-125,957L-16,1195L63,930Z" fill="#d780a9" stroke="#d780a9" stroke-width="1.51"/><path d="M7,506L-63,622L124,569Z" fill="#fba0b9" stroke="#fba0b9" stroke-width="1.51"/><path d="M-63,622L-125,957L63,930Z" fill="#eb8db4" stroke="#eb8db4" stroke-width="1.51"/><path d="M-16,1195L-118,1348L97,1389Z" fill="#b675a4" stroke="#b675a4" stroke-width="1.51"/><path d="M-331,-272L-19,-245L38,-311Z" fill="#fee5e2" stroke="#fee5e2" stroke-width="1.51"/><path d="M-19,-245L-195,-58L68,-56Z" fill="#fddbd8" stroke="#fddbd8" stroke-width="1.51"/><path d="M-350,560L-63,622L7,506Z" fill="#fca6bf" stroke="#fca6bf" stroke-width="1.51"/><path d="M-189,276L-350,560L7,506Z" fill="#feb4c5" stroke="#feb4c5" stroke-width="1.51"/><path d="M-195,-58L-338,85L-189,276Z" fill="#fed5d2" stroke="#fed5d2" stroke-width="1.51"/><path d="M-350,560L-125,957L-63,622Z" fill="#f59bbe" stroke="#f59bbe" stroke-width="1.51"/><path d="M-284,-130L-195,-58L-19,-245Z" fill="#fde1dd" stroke="#fde1dd" stroke-width="1.51"/><path d="M-321,1096L-118,1348L-16,1195Z" fill="#c17eac" stroke="#c17eac" stroke-width="1.51"/><path d="M-125,957L-321,1096L-16,1195Z" fill="#d183ad" stroke="#d183ad" stroke-width="1.51"/><path d="M-331,-272L-284,-130L-19,-245Z" fill="#fee6e3" stroke="#fee6e3" stroke-width="1.51"/><path d="M-350,560L-438,916L-125,957Z" fill="#ef97be" stroke="#ef97be" stroke-width="1.51"/><path d="M-321,1096L-428,1355L-118,1348Z" fill="#bc80af" stroke="#bc80af" stroke-width="1.51"/><path d="M-438,916L-321,1096L-125,957Z" fill="#dd8cb4" stroke="#dd8cb4" stroke-width="1.51"/><path d="M-284,-130L-338,85L-195,-58Z" fill="#fededa" stroke="#fededa" stroke-width="1.51"/><path d="M-338,85L-429,508L-189,276Z" fill="#fec8d0" stroke="#fec8d0" stroke-width="1.51"/><path d="M-429,508L-350,560L-189,276Z" fill="#ffb9c9" stroke="#ffb9c9" stroke-width="1.51"/><path d="M-331,-272L-338,85L-284,-130Z" fill="#fee3e0" stroke="#fee3e0" stroke-width="1.51"/><path d="M-429,508L-438,916L-350,560Z" fill="#faa7c5" stroke="#faa7c5" stroke-width="1.51"/><path d="M-438,916L-428,1355L-321,1096Z" fill="#ce89b4" stroke="#ce89b4" stroke-width="1.51"/><path d="M-429,508L-338,85L-331,-272Z" fill="#fed9d6" stroke="#fed9d6" stroke-width="1.51"/></svg>