<svg xmlns="http://www.w3.org/2000/svg" width="1920" height="1080"><path d="M-60,-380L109,-352L432,-337Z" fill="#dfebf8" stroke="#dfebf8" stroke-width="1.51"/><path d="M-60,-380L432,-337L973,-363Z" fill="#d2e5f2" stroke="#d2e5f2" stroke-width="1.51"/><path d="M301,1419L-340,1441L1063,1445Z" fill="#6b82af" stroke="#6b82af" stroke-width="1.51"/><path d="M1447,1427L1063,1445L1709,1437Z" fill="#255e9a" stroke="#255e9a" stroke-width="1.51"/><path d="M-60,-380L973,-363L1804,-385Z" fill="#b7d5eb" stroke="#b7d5eb" stroke-width="1.51"/><path d="M973,-363L1254,-352L1804,-385Z" fill="#a1c3e1" stroke="#a1c3e1" stroke-width="1.51"/><path d="M2109,715L2161,916L2221,605Z" fill="#2e6ba7" stroke="#2e6ba7" stroke-width="1.51"/><path d="M2218,455L2221,605L2289,276Z" fill="#4d77aa" stroke="#4d77aa" stroke-width="1.51"/><path d="M1804,-385L1984,-323L2326,-240Z" fill="#8c9dca" stroke="#8c9dca" stroke-width="1.51"/><path d="M2003,-86L2170,55L2326,-240Z" fill="#7c90bd" stroke="#7c90bd" stroke-width="1.51"/><path d="M2170,55L2289,276L2326,-240Z" fill="#7487b4" stroke="#7487b4" stroke-width="1.51"/><path d="M1999,1401L1709,1437L2339,1427Z" fill="#094489" stroke="#094489" stroke-width="1.51"/><path d="M2182,1184L1999,1401L2339,1427Z" fill="#094387" stroke="#094387" stroke-width="1.51"/><path d="M2221,605L2161,916L2339,1427Z" fill="#19589a" stroke="#19589a" stroke-width="1.51"/><path d="M2161,916L2182,1184L2339,1427Z" fill="#0e4b90" stroke="#0e4b90" stroke-width="1.51"/><path d="M2289,276L2221,605L2339,1427Z" fill="#2a649e" stroke="#2a649e" stroke-width="1.51"/><path d="M2326,-240L2289,276L2339,1427Z" fill="#4671a4" stroke="#4671a4" stroke-width="1.51"/><path d="M1984,-323L2003,-86L2326,-240Z" fill="#8597c4" stroke="#8597c4" stroke-width="1.51"/><path d="M2170,55L1955,231L2289,276Z" fill="#6a88b9" stroke="#6a88b9" stroke-width="1.51"/><path d="M2090,459L2218,455L2289,276Z" fill="#547caf" stroke="#547caf" stroke-width="1.51"/><path d="M1955,231L2090,459L2289,276Z" fill="#5f85b7" stroke="#5f85b7" stroke-width="1.51"/><path d="M2109,715L2065,889L2161,916Z" fill="#2768a8" stroke="#2768a8" stroke-width="1.51"/><path d="M2161,916L1982,1066L2182,1184Z" fill="#14599f" stroke="#14599f" stroke-width="1.51"/><path d="M2218,455L2090,459L2221,605Z" fill="#4778ae" stroke="#4778ae" stroke-width="1.51"/><path d="M2090,459L2109,715L2221,605Z" fill="#3e75ae" stroke="#3e75ae" stroke-width="1.51"/><path d="M2065,889L1982,1066L2161,916Z" fill="#1c62a7" stroke="#1c62a7" stroke-width="1.51"/><path d="M1982,1066L1999,1401L2182,1184Z" fill="#0a519b" stroke="#0a519b" stroke-width="1.51"/><path d="M2003,-86L1955,231L2170,55Z" fill="#7791c3" stroke="#7791c3" stroke-width="1.51"/><path d="M2090,459L1866,630L2109,715Z" fill="#3f7bb6" stroke="#3f7bb6" stroke-width="1.51"/><path d="M1982,1066L1806,1163L1999,1401Z" fill="#0f57a1" stroke="#0f57a1" stroke-width="1.51"/><path d="M1866,630L2065,889L2109,715Z" fill="#3073b2" stroke="#3073b2" stroke-width="1.51"/><path d="M1984,-323L1881,-131L2003,-86Z" fill="#879dcc" stroke="#879dcc" stroke-width="1.51"/><path d="M1866,630L1867,958L2065,889Z" fill="#2a72b2" stroke="#2a72b2" stroke-width="1.51"/><path d="M1955,231L1717,384L2090,459Z" fill="#5e8dc1" stroke="#5e8dc1" stroke-width="1.51"/><path d="M1717,384L1866,630L2090,459Z" fill="#4e87be" stroke="#4e87be" stroke-width="1.51"/><path d="M1881,-131L1955,231L2003,-86Z" fill="#7d98c9" stroke="#7d98c9" stroke-width="1.51"/><path d="M1867,958L1982,1066L2065,889Z" fill="#1d65ab" stroke="#1d65ab" stroke-width="1.51"/><path d="M1881,-131L1686,110L1955,231Z" fill="#7c9bcb" stroke="#7c9bcb" stroke-width="1.51"/><path d="M1806,1163L1709,1437L1999,1401Z" fill="#115299" stroke="#115299" stroke-width="1.51"/><path d="M1804,-385L1881,-131L1984,-323Z" fill="#8ea4d0" stroke="#8ea4d0" stroke-width="1.51"/><path d="M1867,958L1806,1163L1982,1066Z" fill="#1963aa" stroke="#1963aa" stroke-width="1.51"/><path d="M1866,630L1627,818L1867,958Z" fill="#2f7ab8" stroke="#2f7ab8" stroke-width="1.51"/><path d="M1686,110L1717,384L1955,231Z" fill="#6d99c9" stroke="#6d99c9" stroke-width="1.51"/><path d="M1686,110L1645,146L1717,384Z" fill="#729ecd" stroke="#729ecd" stroke-width="1.51"/><path d="M1254,-352L1534,-244L1804,-385Z" fill="#9ab7dc" stroke="#9ab7dc" stroke-width="1.51"/><path d="M1717,384L1622,682L1866,630Z" fill="#488ac2" stroke="#488ac2" stroke-width="1.51"/><path d="M1622,682L1627,818L1866,630Z" fill="#3a83be" stroke="#3a83be" stroke-width="1.51"/><path d="M1640,1062L1806,1163L1867,958Z" fill="#1c68ae" stroke="#1c68ae" stroke-width="1.51"/><path d="M1804,-385L1534,-244L1881,-131Z" fill="#90abd5" stroke="#90abd5" stroke-width="1.51"/><path d="M1534,-244L1686,110L1881,-131Z" fill="#87a8d3" stroke="#87a8d3" stroke-width="1.51"/><path d="M1627,818L1640,1062L1867,958Z" fill="#2673b6" stroke="#2673b6" stroke-width="1.51"/><path d="M1534,-244L1462,-55L1686,110Z" fill="#8aaed7" stroke="#8aaed7" stroke-width="1.51"/><path d="M1640,1062L1709,1437L1806,1163Z" fill="#1660a8" stroke="#1660a8" stroke-width="1.51"/><path d="M1415,1125L1387,1325L1640,1062Z" fill="#266eb1" stroke="#266eb1" stroke-width="1.51"/><path d="M1640,1062L1387,1325L1709,1437Z" fill="#1d63a7" stroke="#1d63a7" stroke-width="1.51"/><path d="M1387,1325L1447,1427L1709,1437Z" fill="#205c9b" stroke="#205c9b" stroke-width="1.51"/><path d="M1645,146L1551,386L1717,384Z" fill="#6a9ecc" stroke="#6a9ecc" stroke-width="1.51"/><path d="M1551,386L1622,682L1717,384Z" fill="#5494c8" stroke="#5494c8" stroke-width="1.51"/><path d="M1462,-55L1645,146L1686,110Z" fill="#82a7d4" stroke="#82a7d4" stroke-width="1.51"/><path d="M1551,386L1305,627L1622,682Z" fill="#4f96c9" stroke="#4f96c9" stroke-width="1.51"/><path d="M1296,805L1415,1125L1627,818Z" fill="#3481be" stroke="#3481be" stroke-width="1.51"/><path d="M1627,818L1415,1125L1640,1062Z" fill="#2876b8" stroke="#2876b8" stroke-width="1.51"/><path d="M1324,121L1551,386L1645,146Z" fill="#77a7d2" stroke="#77a7d2" stroke-width="1.51"/><path d="M1462,-55L1324,121L1645,146Z" fill="#85add7" stroke="#85add7" stroke-width="1.51"/><path d="M1312,448L1305,627L1551,386Z" fill="#5c9fce" stroke="#5c9fce" stroke-width="1.51"/><path d="M1305,627L1296,805L1622,682Z" fill="#4591c6" stroke="#4591c6" stroke-width="1.51"/><path d="M1622,682L1296,805L1627,818Z" fill="#3a89c1" stroke="#3a89c1" stroke-width="1.51"/><path d="M432,-337L915,-344L973,-363Z" fill="#bedaec" stroke="#bedaec" stroke-width="1.51"/><path d="M1324,121L1312,448L1551,386Z" fill="#70a8d1" stroke="#70a8d1" stroke-width="1.51"/><path d="M770,1353L301,1419L1063,1445Z" fill="#557aab" stroke="#557aab" stroke-width="1.51"/><path d="M1254,-352L1462,-55L1534,-244Z" fill="#97badd" stroke="#97badd" stroke-width="1.51"/><path d="M1293,52L1324,121L1462,-55Z" fill="#8ab4da" stroke="#8ab4da" stroke-width="1.51"/><path d="M1254,-352L1293,52L1462,-55Z" fill="#94bbdd" stroke="#94bbdd" stroke-width="1.51"/><path d="M1254,-352L1148,32L1293,52Z" fill="#97bedf" stroke="#97bedf" stroke-width="1.51"/><path d="M1154,171L1312,448L1324,121Z" fill="#7cb2d6" stroke="#7cb2d6" stroke-width="1.51"/><path d="M1296,805L1039,1107L1415,1125Z" fill="#3884bf" stroke="#3884bf" stroke-width="1.51"/><path d="M1387,1325L1063,1445L1447,1427Z" fill="#2b65a1" stroke="#2b65a1" stroke-width="1.51"/><path d="M1116,826L1039,1107L1296,805Z" fill="#458ec5" stroke="#458ec5" stroke-width="1.51"/><path d="M1039,1107L1387,1325L1415,1125Z" fill="#3176b4" stroke="#3176b4" stroke-width="1.51"/><path d="M1039,1107L1063,1445L1387,1325Z" fill="#3773af" stroke="#3773af" stroke-width="1.51"/><path d="M973,-363L1148,32L1254,-352Z" fill="#a4c7e4" stroke="#a4c7e4" stroke-width="1.51"/><path d="M1116,826L1296,805L1305,627Z" fill="#4996c9" stroke="#4996c9" stroke-width="1.51"/><path d="M1109,491L1305,627L1312,448Z" fill="#5ea4d0" stroke="#5ea4d0" stroke-width="1.51"/><path d="M1154,171L1109,491L1312,448Z" fill="#73aed5" stroke="#73aed5" stroke-width="1.51"/><path d="M1293,52L1154,171L1324,121Z" fill="#89b6db" stroke="#89b6db" stroke-width="1.51"/><path d="M432,-337L690,-295L915,-344Z" fill="#c2dded" stroke="#c2dded" stroke-width="1.51"/><path d="M973,-363L942,-28L1148,32Z" fill="#a2c8e4" stroke="#a2c8e4" stroke-width="1.51"/><path d="M1148,32L1154,171L1293,52Z" fill="#8ebadd" stroke="#8ebadd" stroke-width="1.51"/><path d="M997,658L1116,826L1305,627Z" fill="#549dcd" stroke="#549dcd" stroke-width="1.51"/><path d="M1109,491L997,658L1305,627Z" fill="#5ea4d0" stroke="#5ea4d0" stroke-width="1.51"/><path d="M915,-344L942,-28L973,-363Z" fill="#adcfe9" stroke="#adcfe9" stroke-width="1.51"/><path d="M924,972L1039,1107L1116,826Z" fill="#4a90c6" stroke="#4a90c6" stroke-width="1.51"/><path d="M878,218L1109,491L1154,171Z" fill="#83b9da" stroke="#83b9da" stroke-width="1.51"/><path d="M1148,32L942,-28L1154,171Z" fill="#96c0e0" stroke="#96c0e0" stroke-width="1.51"/><path d="M942,-28L878,218L1154,171Z" fill="#95c1e1" stroke="#95c1e1" stroke-width="1.51"/><path d="M1039,1107L770,1353L1063,1445Z" fill="#437ab3" stroke="#437ab3" stroke-width="1.51"/><path d="M878,218L763,344L1109,491Z" fill="#84badb" stroke="#84badb" stroke-width="1.51"/><path d="M997,658L924,972L1116,826Z" fill="#529bcb" stroke="#529bcb" stroke-width="1.51"/><path d="M763,344L997,658L1109,491Z" fill="#71b0d7" stroke="#71b0d7" stroke-width="1.51"/><path d="M803,720L924,972L997,658Z" fill="#5ca1ce" stroke="#5ca1ce" stroke-width="1.51"/><path d="M795,1047L770,1353L1039,1107Z" fill="#4f87be" stroke="#4f87be" stroke-width="1.51"/><path d="M763,344L803,720L997,658Z" fill="#71b0d7" stroke="#71b0d7" stroke-width="1.51"/><path d="M924,972L795,1047L1039,1107Z" fill="#4e8ec5" stroke="#4e8ec5" stroke-width="1.51"/><path d="M690,-295L651,-153L915,-344Z" fill="#bbd8ec" stroke="#bbd8ec" stroke-width="1.51"/><path d="M915,-344L651,-153L942,-28Z" fill="#b0d2e9" stroke="#b0d2e9" stroke-width="1.51"/><path d="M803,720L795,1047L924,972Z" fill="#5b9acb" stroke="#5b9acb" stroke-width="1.51"/><path d="M667,230L878,218L942,-28Z" fill="#9dc7e3" stroke="#9dc7e3" stroke-width="1.51"/><path d="M651,-153L667,230L942,-28Z" fill="#accee6" stroke="#accee6" stroke-width="1.51"/><path d="M593,1293L301,1419L770,1353Z" fill="#6283b3" stroke="#6283b3" stroke-width="1.51"/><path d="M763,344L678,348L803,720Z" fill="#83badb" stroke="#83badb" stroke-width="1.51"/><path d="M593,1293L770,1353L795,1047Z" fill="#5a88bd" stroke="#5a88bd" stroke-width="1.51"/><path d="M537,967L795,1047L803,720Z" fill="#66a0cd" stroke="#66a0cd" stroke-width="1.51"/><path d="M667,230L763,344L878,218Z" fill="#97c5e0" stroke="#97c5e0" stroke-width="1.51"/><path d="M515,1134L593,1293L795,1047Z" fill="#6390c3" stroke="#6390c3" stroke-width="1.51"/><path d="M678,348L544,752L803,720Z" fill="#7cb5d8" stroke="#7cb5d8" stroke-width="1.51"/><path d="M544,752L537,967L803,720Z" fill="#71aad2" stroke="#71aad2" stroke-width="1.51"/><path d="M537,967L515,1134L795,1047Z" fill="#6899c9" stroke="#6899c9" stroke-width="1.51"/><path d="M651,-153L380,-24L667,230Z" fill="#b7d5ea" stroke="#b7d5ea" stroke-width="1.51"/><path d="M667,230L678,348L763,344Z" fill="#98c6e0" stroke="#98c6e0" stroke-width="1.51"/><path d="M308,601L544,752L678,348Z" fill="#8abddd" stroke="#8abddd" stroke-width="1.51"/><path d="M276,502L308,601L678,348Z" fill="#97c4e1" stroke="#97c4e1" stroke-width="1.51"/><path d="M432,-337L651,-153L690,-295Z" fill="#c5deee" stroke="#c5deee" stroke-width="1.51"/><path d="M462,858L537,967L544,752Z" fill="#77a9d3" stroke="#77a9d3" stroke-width="1.51"/><path d="M380,-24L269,184L667,230Z" fill="#b7d4e9" stroke="#b7d4e9" stroke-width="1.51"/><path d="M222,409L276,502L678,348Z" fill="#9fc8e3" stroke="#9fc8e3" stroke-width="1.51"/><path d="M269,184L222,409L678,348Z" fill="#aacfe5" stroke="#aacfe5" stroke-width="1.51"/><path d="M667,230L269,184L678,348Z" fill="#a7cde4" stroke="#a7cde4" stroke-width="1.51"/><path d="M432,-337L380,-24L651,-153Z" fill="#c6ddee" stroke="#c6ddee" stroke-width="1.51"/><path d="M435,1052L515,1134L537,967Z" fill="#6f9bcb" stroke="#6f9bcb" stroke-width="1.51"/><path d="M515,1134L301,1419L593,1293Z" fill="#6a8bbd" stroke="#6a8bbd" stroke-width="1.51"/><path d="M308,601L462,858L544,752Z" fill="#82b3d9" stroke="#82b3d9" stroke-width="1.51"/><path d="M435,1052L301,1419L515,1134Z" fill="#7092c5" stroke="#7092c5" stroke-width="1.51"/><path d="M462,858L435,1052L537,967Z" fill="#74a3d0" stroke="#74a3d0" stroke-width="1.51"/><path d="M164,1339L301,1419L435,1052Z" fill="#748fc2" stroke="#748fc2" stroke-width="1.51"/><path d="M164,1339L-340,1441L301,1419Z" fill="#798bb6" stroke="#798bb6" stroke-width="1.51"/><path d="M109,-352L380,-24L432,-337Z" fill="#d3e4f3" stroke="#d3e4f3" stroke-width="1.51"/><path d="M145,1087L164,1339L435,1052Z" fill="#7b99ca" stroke="#7b99ca" stroke-width="1.51"/><path d="M175,960L435,1052L462,858Z" fill="#7ca6d2" stroke="#7ca6d2" stroke-width="1.51"/><path d="M308,601L175,960L462,858Z" fill="#85b2d9" stroke="#85b2d9" stroke-width="1.51"/><path d="M109,-352L129,23L380,-24Z" fill="#d1e2f3" stroke="#d1e2f3" stroke-width="1.51"/><path d="M175,960L145,1087L435,1052Z" fill="#7fa2d1" stroke="#7fa2d1" stroke-width="1.51"/><path d="M129,23L269,184L380,-24Z" fill="#c7dbef" stroke="#c7dbef" stroke-width="1.51"/><path d="M276,502L49,583L308,601Z" fill="#9bc4e3" stroke="#9bc4e3" stroke-width="1.51"/><path d="M49,583L175,960L308,601Z" fill="#91bbde" stroke="#91bbde" stroke-width="1.51"/><path d="M62,182L222,409L269,184Z" fill="#b9d5ea" stroke="#b9d5ea" stroke-width="1.51"/><path d="M129,23L62,182L269,184Z" fill="#c5dbee" stroke="#c5dbee" stroke-width="1.51"/><path d="M222,409L49,583L276,502Z" fill="#a2c8e4" stroke="#a2c8e4" stroke-width="1.51"/><path d="M109,-352L-108,-139L129,23Z" fill="#d9e7f5" stroke="#d9e7f5" stroke-width="1.51"/><path d="M-112,1263L-340,1441L164,1339Z" fill="#8091be" stroke="#8091be" stroke-width="1.51"/><path d="M62,182L-9,292L222,409Z" fill="#b9d6ea" stroke="#b9d6ea" stroke-width="1.51"/><path d="M145,1087L-30,1107L164,1339Z" fill="#809bcb" stroke="#809bcb" stroke-width="1.51"/><path d="M49,583L-33,974L175,960Z" fill="#8eb5da" stroke="#8eb5da" stroke-width="1.51"/><path d="M-14,457L49,583L222,409Z" fill="#a7cce6" stroke="#a7cce6" stroke-width="1.51"/><path d="M-9,292L-14,457L222,409Z" fill="#b1d2e8" stroke="#b1d2e8" stroke-width="1.51"/><path d="M-133,630L-33,974L49,583Z" fill="#98bfe0" stroke="#98bfe0" stroke-width="1.51"/><path d="M-30,1107L-112,1263L164,1339Z" fill="#8198c9" stroke="#8198c9" stroke-width="1.51"/><path d="M-33,974L145,1087L175,960Z" fill="#86a7d4" stroke="#86a7d4" stroke-width="1.51"/><path d="M-60,-380L-108,-139L109,-352Z" fill="#e2edf8" stroke="#e2edf8" stroke-width="1.51"/><path d="M-33,974L-30,1107L145,1087Z" fill="#87a6d2" stroke="#87a6d2" stroke-width="1.51"/><path d="M-108,-139L62,182L129,23Z" fill="#d1e1f3" stroke="#d1e1f3" stroke-width="1.51"/><path d="M-108,-139L-435,91L-9,292Z" fill="#d4e4f4" stroke="#d4e4f4" stroke-width="1.51"/><path d="M-108,-139L-9,292L62,182Z" fill="#ccdff1" stroke="#ccdff1" stroke-width="1.51"/><path d="M-14,457L-133,630L49,583Z" fill="#a4cae6" stroke="#a4cae6" stroke-width="1.51"/><path d="M-415,-53L-435,91L-108,-139Z" fill="#e0ebf8" stroke="#e0ebf8" stroke-width="1.51"/><path d="M-133,630L-309,904L-33,974Z" fill="#97badd" stroke="#97badd" stroke-width="1.51"/><path d="M-247,405L-133,630L-14,457Z" fill="#add0e8" stroke="#add0e8" stroke-width="1.51"/><path d="M-435,91L-247,405L-9,292Z" fill="#c6dfef" stroke="#c6dfef" stroke-width="1.51"/><path d="M-247,405L-14,457L-9,292Z" fill="#b6d5ea" stroke="#b6d5ea" stroke-width="1.51"/><path d="M-322,-234L-108,-139L-60,-380Z" fill="#e5eff9" stroke="#e5eff9" stroke-width="1.51"/><path d="M-309,904L-364,1032L-33,974Z" fill="#94b2d9" stroke="#94b2d9" stroke-width="1.51"/><path d="M-33,974L-364,1032L-30,1107Z" fill="#8daad5" stroke="#8daad5" stroke-width="1.51"/><path d="M-364,1032L-112,1263L-30,1107Z" fill="#8ba4d0" stroke="#8ba4d0" stroke-width="1.51"/><path d="M-322,-234L-415,-53L-108,-139Z" fill="#e4eef9" stroke="#e4eef9" stroke-width="1.51"/><path d="M-364,1032L-340,1441L-112,1263Z" fill="#8b9ecb" stroke="#8b9ecb" stroke-width="1.51"/><path d="M-247,405L-430,552L-133,630Z" fill="#afd0e9" stroke="#afd0e9" stroke-width="1.51"/><path d="M-430,552L-309,904L-133,630Z" fill="#a4c7e3" stroke="#a4c7e3" stroke-width="1.51"/><path d="M-435,91L-430,552L-247,405Z" fill="#c4deee" stroke="#c4deee" stroke-width="1.51"/><path d="M-430,552L-364,1032L-309,904Z" fill="#9fbfe0" stroke="#9fbfe0" stroke-width="1.51"/><path d="M-364,1032L-430,552L-340,1441Z" fill="#97b2d9" stroke="#97b2d9" stroke-width="1.51"/></svg>